<svg width="1080" height="200" viewBox="0 0 1080 200" fill="none" xmlns="http://www.w3.org/2000/svg">
<rect width="1080" height="200" fill="#572415"/>
<path d="M430.395 118.68H435.934V124.219H430.395V118.68Z" fill="#B2441F"/>
<path d="M424.856 118.68H430.395V124.219H424.856V118.68Z" fill="#B2441F"/>
<path d="M419.324 118.68H424.863V124.219H419.324V118.68Z" fill="#B2441F"/>
<path d="M419.324 124.219H424.863V129.758H419.324V124.219Z" fill="#B2441F"/>
<path d="M419.324 129.758H424.863V135.297H419.324V129.758Z" fill="#B2441F"/>
<path d="M424.856 129.758H430.395V135.297H424.856V129.758Z" fill="#B2441F"/>
<path d="M430.395 129.758H435.934V135.297H430.395V129.758Z" fill="#B2441F"/>
<path d="M430.395 124.219H435.934V129.758H430.395V124.219Z" fill="#B2441F"/>
<path d="M403.41 102.773H408.949V108.312H403.41V102.773Z" fill="#B2441F"/>
<path d="M403.41 97.2344H408.949V102.773H403.41V97.2344Z" fill="#B2441F"/>
<path d="M403.41 91.7031H408.949V97.2421H403.41V91.7031Z" fill="#B2441F"/>
<path d="M397.879 91.7031H403.418V97.2421H397.879V91.7031Z" fill="#B2441F"/>
<path d="M392.34 91.7031H397.879V97.2421H392.34V91.7031Z" fill="#B2441F"/>
<path d="M392.34 97.2344H397.879V102.773H392.34V97.2344Z" fill="#B2441F"/>
<path d="M392.34 102.773H397.879V108.312H392.34V102.773Z" fill="#B2441F"/>
<path d="M397.879 102.773H403.418V108.312H397.879V102.773Z" fill="#B2441F"/>
<path d="M419.324 75.7812H424.863V81.3202H419.324V75.7812Z" fill="#B2441F"/>
<path d="M424.856 75.7812H430.395V81.3202H424.856V75.7812Z" fill="#B2441F"/>
<path d="M430.395 75.7812H435.934V81.3202H430.395V75.7812Z" fill="#B2441F"/>
<path d="M430.395 70.25H435.934V75.789H430.395V70.25Z" fill="#B2441F"/>
<path d="M430.395 64.7109H435.934V70.2499H430.395V64.7109Z" fill="#B2441F"/>
<path d="M424.856 64.7109H430.395V70.2499H424.856V64.7109Z" fill="#B2441F"/>
<path d="M419.324 64.7109H424.863V70.2499H419.324V64.7109Z" fill="#B2441F"/>
<path d="M419.324 70.25H424.863V75.789H419.324V70.25Z" fill="#B2441F"/>
<path d="M446.305 91.7031H451.844V97.2421H446.305V91.7031Z" fill="#B2441F"/>
<path d="M446.305 97.2344H451.844V102.773H446.305V97.2344Z" fill="#B2441F"/>
<path d="M446.305 102.773H451.844V108.312H446.305V102.773Z" fill="#B2441F"/>
<path d="M451.844 102.773H457.383V108.312H451.844V102.773Z" fill="#B2441F"/>
<path d="M457.383 102.773H462.922V108.312H457.383V102.773Z" fill="#B2441F"/>
<path d="M457.383 97.2344H462.922V102.773H457.383V97.2344Z" fill="#B2441F"/>
<path d="M457.383 91.7031H462.922V97.2421H457.383V91.7031Z" fill="#B2441F"/>
<path d="M451.844 91.7031H457.383V97.2421H451.844V91.7031Z" fill="#B2441F"/>
<path d="M424.856 97.2344H430.406V102.785H424.856V97.2344Z" fill="#EC8E05"/>
<path d="M430.395 86.1484H435.945V91.6987H430.395V86.1484Z" fill="#EC8E05"/>
<path d="M419.309 86.1484H424.859V91.6987H419.309V86.1484Z" fill="#EC8E05"/>
<path d="M435.946 91.6875H441.496V97.2377H435.946V91.6875Z" fill="#EC8E05"/>
<path d="M413.77 91.6875H419.32V97.2377H413.77V91.6875Z" fill="#EC8E05"/>
<path d="M419.309 108.32H424.859V113.871H419.309V108.32Z" fill="#EC8E05"/>
<path d="M430.395 108.32H435.945V113.871H430.395V108.32Z" fill="#EC8E05"/>
<path d="M413.77 102.781H419.32V108.331H413.77V102.781Z" fill="#EC8E05"/>
<path d="M435.946 102.781H441.496V108.331H435.946V102.781Z" fill="#EC8E05"/>
<path d="M329.926 103.547H324.387V109.086H329.926V103.547Z" fill="#E6CEAA"/>
<path d="M341.004 103.547H335.465V109.086H341.004V103.547Z" fill="#E6CEAA"/>
<path d="M335.465 114.625H329.926V120.164H335.465V114.625Z" fill="#EC8E05"/>
<path d="M335.465 125.695H329.926V131.234H335.465V125.695Z" fill="#EC8E05"/>
<path d="M341 103.539H335.461V109.078H341V103.539Z" fill="#E6CEAA"/>
<path d="M341 92.4688H335.461V98.0077H341V92.4688Z" fill="#E6CEAA"/>
<path d="M352.074 98.0078H346.535V103.547H352.074V98.0078Z" fill="#EC8E05"/>
<path d="M363.152 98.0078H357.613V103.547H363.152V98.0078Z" fill="#EC8E05"/>
<path d="M341.004 92.4688H335.465V98.0077H341.004V92.4688Z" fill="#E6CEAA"/>
<path d="M329.926 92.4688H324.387V98.0077H329.926V92.4688Z" fill="#E6CEAA"/>
<path d="M335.465 81.4062H329.926V86.9452H335.465V81.4062Z" fill="#EC8E05"/>
<path d="M335.465 70.3281H329.926V75.8671H335.465V70.3281Z" fill="#EC8E05"/>
<path d="M329.926 92.4688H324.387V98.0077H329.926V92.4688Z" fill="#E6CEAA"/>
<path d="M329.926 103.539H324.387V109.078H329.926V103.539Z" fill="#E6CEAA"/>
<path d="M318.863 98.0078H313.324V103.547H318.863V98.0078Z" fill="#EC8E05"/>
<path d="M307.793 98.0078H302.254V103.547H307.793V98.0078Z" fill="#EC8E05"/>
<path d="M250.906 92.625H245.367V98.164H250.906V92.625Z" fill="#EC8E05"/>
<path d="M250.906 98.1641H245.367V103.703H250.906V98.1641Z" fill="#EC8E05"/>
<path d="M250.906 103.695H245.367V109.234H250.906V103.695Z" fill="#EC8E05"/>
<path d="M245.367 103.695H239.828V109.234H245.367V103.695Z" fill="#EC8E05"/>
<path d="M239.836 103.695H234.297V109.234H239.836V103.695Z" fill="#EC8E05"/>
<path d="M239.836 98.1641H234.297V103.703H239.836V98.1641Z" fill="#EC8E05"/>
<path d="M239.836 92.625H234.297V98.164H239.836V92.625Z" fill="#EC8E05"/>
<path d="M245.367 92.625H239.828V98.164H245.367V92.625Z" fill="#EC8E05"/>
<path d="M250.902 92.625H245.363V98.164H250.902V92.625Z" fill="#EC8E05"/>
<path d="M250.902 103.695H245.363V109.234H250.902V103.695Z" fill="#EC8E05"/>
<path d="M273.047 98.1641H267.508V103.703H273.047V98.1641Z" fill="#E6CEAA"/>
<path d="M261.969 98.1641H256.43V103.703H261.969V98.1641Z" fill="#E6CEAA"/>
<path d="M239.836 81.5625H234.297V87.1015H239.836V81.5625Z" fill="#E6CEAA"/>
<path d="M250.906 81.5625H245.367V87.1015H250.906V81.5625Z" fill="#E6CEAA"/>
<path d="M228.758 98.1641H223.219V103.703H228.758V98.1641Z" fill="#E6CEAA"/>
<path d="M217.687 98.1641H212.148V103.703H217.687V98.1641Z" fill="#E6CEAA"/>
<path d="M250.906 114.773H245.367V120.312H250.906V114.773Z" fill="#E6CEAA"/>
<path d="M239.836 114.773H234.297V120.312H239.836V114.773Z" fill="#E6CEAA"/>
<path d="M537.234 92.1875H531.695V97.7265H537.234V92.1875Z" fill="#B2441F"/>
<path d="M542.766 92.1875H537.227V97.7265H542.766V92.1875Z" fill="#B2441F"/>
<path d="M548.305 92.1875H542.766V97.7265H548.305V92.1875Z" fill="#B2441F"/>
<path d="M548.305 97.7266H542.766V103.266H548.305V97.7266Z" fill="#B2441F"/>
<path d="M548.305 103.258H542.766V108.797H548.305V103.258Z" fill="#B2441F"/>
<path d="M542.766 103.258H537.227V108.797H542.766V103.258Z" fill="#B2441F"/>
<path d="M537.234 103.258H531.695V108.797H537.234V103.258Z" fill="#B2441F"/>
<path d="M537.234 97.7266H531.695V103.266H537.234V97.7266Z" fill="#B2441F"/>
<path d="M542.773 70.0078H537.223V75.558H542.773V70.0078Z" fill="#EC8E05"/>
<path d="M537.222 58.9219H531.672V64.4721H537.222V58.9219Z" fill="#EC8E05"/>
<path d="M548.312 58.9219H542.762V64.4721H548.312V58.9219Z" fill="#EC8E05"/>
<path d="M531.683 64.4688H526.133V70.019H531.683V64.4688Z" fill="#EC8E05"/>
<path d="M553.859 64.4688H548.309V70.019H553.859V64.4688Z" fill="#EC8E05"/>
<path d="M548.312 81.1094H542.762V86.6596H548.312V81.1094Z" fill="#EC8E05"/>
<path d="M537.222 81.1094H531.672V86.6596H537.222V81.1094Z" fill="#EC8E05"/>
<path d="M553.859 75.5625H548.309V81.1127H553.859V75.5625Z" fill="#EC8E05"/>
<path d="M531.683 75.5625H526.133V81.1127H531.683V75.5625Z" fill="#EC8E05"/>
<path d="M515.562 97.2188H510.012V102.769H515.562V97.2188Z" fill="#EC8E05"/>
<path d="M504.472 102.773H498.922V108.324H504.472V102.773Z" fill="#EC8E05"/>
<path d="M504.472 91.6797H498.922V97.2299H504.472V91.6797Z" fill="#EC8E05"/>
<path d="M510.011 108.32H504.461V113.871H510.011V108.32Z" fill="#EC8E05"/>
<path d="M510.011 86.1328H504.461V91.683H510.011V86.1328Z" fill="#EC8E05"/>
<path d="M526.652 91.6797H521.102V97.2299H526.652V91.6797Z" fill="#EC8E05"/>
<path d="M526.652 102.773H521.102V108.324H526.652V102.773Z" fill="#EC8E05"/>
<path d="M521.101 86.1328H515.551V91.683H521.101V86.1328Z" fill="#EC8E05"/>
<path d="M521.101 108.32H515.551V113.871H521.101V108.32Z" fill="#EC8E05"/>
<path d="M542.773 124.43H537.223V129.98H542.773V124.43Z" fill="#EC8E05"/>
<path d="M548.312 135.531H542.762V141.081H548.312V135.531Z" fill="#EC8E05"/>
<path d="M537.222 135.531H531.672V141.081H537.222V135.531Z" fill="#EC8E05"/>
<path d="M553.859 129.984H548.309V135.535H553.859V129.984Z" fill="#EC8E05"/>
<path d="M531.683 129.984H526.133V135.535H531.683V129.984Z" fill="#EC8E05"/>
<path d="M537.222 113.344H531.672V118.894H537.222V113.344Z" fill="#EC8E05"/>
<path d="M548.312 113.344H542.762V118.894H548.312V113.344Z" fill="#EC8E05"/>
<path d="M531.683 118.891H526.133V124.441H531.683V118.891Z" fill="#EC8E05"/>
<path d="M553.859 118.891H548.309V124.441H553.859V118.891Z" fill="#EC8E05"/>
<path d="M569.988 97.2188H564.438V102.769H569.988V97.2188Z" fill="#EC8E05"/>
<path d="M581.078 91.6797H575.527V97.2299H581.078V91.6797Z" fill="#EC8E05"/>
<path d="M581.078 102.773H575.527V108.324H581.078V102.773Z" fill="#EC8E05"/>
<path d="M575.527 86.1328H569.977V91.683H575.527V86.1328Z" fill="#EC8E05"/>
<path d="M575.527 108.32H569.977V113.871H575.527V108.32Z" fill="#EC8E05"/>
<path d="M558.898 102.773H553.348V108.324H558.898V102.773Z" fill="#EC8E05"/>
<path d="M558.898 91.6797H553.348V97.2299H558.898V91.6797Z" fill="#EC8E05"/>
<path d="M564.437 108.32H558.887V113.871H564.437V108.32Z" fill="#EC8E05"/>
<path d="M564.437 86.1328H558.887V91.683H564.437V86.1328Z" fill="#EC8E05"/>
<path d="M649.605 118.68H644.066V124.219H649.605V118.68Z" fill="#B2441F"/>
<path d="M655.144 118.68H649.605V124.219H655.144V118.68Z" fill="#B2441F"/>
<path d="M660.676 118.68H655.137V124.219H660.676V118.68Z" fill="#B2441F"/>
<path d="M660.676 124.219H655.137V129.758H660.676V124.219Z" fill="#B2441F"/>
<path d="M660.676 129.758H655.137V135.297H660.676V129.758Z" fill="#B2441F"/>
<path d="M655.144 129.758H649.605V135.297H655.144V129.758Z" fill="#B2441F"/>
<path d="M649.605 129.758H644.066V135.297H649.605V129.758Z" fill="#B2441F"/>
<path d="M649.605 124.219H644.066V129.758H649.605V124.219Z" fill="#B2441F"/>
<path d="M676.59 102.773H671.051V108.312H676.59V102.773Z" fill="#B2441F"/>
<path d="M676.59 97.2344H671.051V102.773H676.59V97.2344Z" fill="#B2441F"/>
<path d="M676.59 91.7031H671.051V97.2421H676.59V91.7031Z" fill="#B2441F"/>
<path d="M682.121 91.7031H676.582V97.2421H682.121V91.7031Z" fill="#B2441F"/>
<path d="M687.66 91.7031H682.121V97.2421H687.66V91.7031Z" fill="#B2441F"/>
<path d="M687.66 97.2344H682.121V102.773H687.66V97.2344Z" fill="#B2441F"/>
<path d="M687.66 102.773H682.121V108.312H687.66V102.773Z" fill="#B2441F"/>
<path d="M682.121 102.773H676.582V108.312H682.121V102.773Z" fill="#B2441F"/>
<path d="M660.676 75.7812H655.137V81.3202H660.676V75.7812Z" fill="#B2441F"/>
<path d="M655.144 75.7812H649.605V81.3202H655.144V75.7812Z" fill="#B2441F"/>
<path d="M649.605 75.7812H644.066V81.3202H649.605V75.7812Z" fill="#B2441F"/>
<path d="M649.605 70.25H644.066V75.789H649.605V70.25Z" fill="#B2441F"/>
<path d="M649.605 64.7109H644.066V70.2499H649.605V64.7109Z" fill="#B2441F"/>
<path d="M655.144 64.7109H649.605V70.2499H655.144V64.7109Z" fill="#B2441F"/>
<path d="M660.676 64.7109H655.137V70.2499H660.676V64.7109Z" fill="#B2441F"/>
<path d="M660.676 70.25H655.137V75.789H660.676V70.25Z" fill="#B2441F"/>
<path d="M633.695 91.7031H628.156V97.2421H633.695V91.7031Z" fill="#B2441F"/>
<path d="M633.695 97.2344H628.156V102.773H633.695V97.2344Z" fill="#B2441F"/>
<path d="M633.695 102.773H628.156V108.312H633.695V102.773Z" fill="#B2441F"/>
<path d="M628.156 102.773H622.617V108.312H628.156V102.773Z" fill="#B2441F"/>
<path d="M622.617 102.773H617.078V108.312H622.617V102.773Z" fill="#B2441F"/>
<path d="M622.617 97.2344H617.078V102.773H622.617V97.2344Z" fill="#B2441F"/>
<path d="M622.617 91.7031H617.078V97.2421H622.617V91.7031Z" fill="#B2441F"/>
<path d="M628.156 91.7031H622.617V97.2421H628.156V91.7031Z" fill="#B2441F"/>
<path d="M655.144 97.2344H649.594V102.785H655.144V97.2344Z" fill="#EC8E05"/>
<path d="M649.605 86.1484H644.055V91.6987H649.605V86.1484Z" fill="#EC8E05"/>
<path d="M660.691 86.1484H655.141V91.6987H660.691V86.1484Z" fill="#EC8E05"/>
<path d="M644.054 91.6875H638.504V97.2377H644.054V91.6875Z" fill="#EC8E05"/>
<path d="M666.23 91.6875H660.68V97.2377H666.23V91.6875Z" fill="#EC8E05"/>
<path d="M660.691 108.32H655.141V113.871H660.691V108.32Z" fill="#EC8E05"/>
<path d="M649.605 108.32H644.055V113.871H649.605V108.32Z" fill="#EC8E05"/>
<path d="M666.23 102.781H660.68V108.331H666.23V102.781Z" fill="#EC8E05"/>
<path d="M644.054 102.781H638.504V108.331H644.054V102.781Z" fill="#EC8E05"/>
<path d="M750.074 103.547H755.613V109.086H750.074V103.547Z" fill="#E6CEAA"/>
<path d="M738.996 103.547H744.535V109.086H738.996V103.547Z" fill="#E6CEAA"/>
<path d="M744.535 114.625H750.074V120.164H744.535V114.625Z" fill="#EC8E05"/>
<path d="M744.535 125.695H750.074V131.234H744.535V125.695Z" fill="#EC8E05"/>
<path d="M739 103.539H744.539V109.078H739V103.539Z" fill="#E6CEAA"/>
<path d="M739 92.4688H744.539V98.0077H739V92.4688Z" fill="#E6CEAA"/>
<path d="M727.926 98.0078H733.465V103.547H727.926V98.0078Z" fill="#EC8E05"/>
<path d="M716.848 98.0078H722.387V103.547H716.848V98.0078Z" fill="#EC8E05"/>
<path d="M738.996 92.4688H744.535V98.0077H738.996V92.4688Z" fill="#E6CEAA"/>
<path d="M750.074 92.4688H755.613V98.0077H750.074V92.4688Z" fill="#E6CEAA"/>
<path d="M744.535 81.4062H750.074V86.9452H744.535V81.4062Z" fill="#EC8E05"/>
<path d="M744.535 70.3281H750.074V75.8671H744.535V70.3281Z" fill="#EC8E05"/>
<path d="M750.074 92.4688H755.613V98.0077H750.074V92.4688Z" fill="#E6CEAA"/>
<path d="M750.074 103.539H755.613V109.078H750.074V103.539Z" fill="#E6CEAA"/>
<path d="M761.137 98.0078H766.676V103.547H761.137V98.0078Z" fill="#EC8E05"/>
<path d="M772.207 98.0078H777.746V103.547H772.207V98.0078Z" fill="#EC8E05"/>
<path d="M829.094 92.625H834.633V98.164H829.094V92.625Z" fill="#EC8E05"/>
<path d="M829.094 98.1641H834.633V103.703H829.094V98.1641Z" fill="#EC8E05"/>
<path d="M829.094 103.695H834.633V109.234H829.094V103.695Z" fill="#EC8E05"/>
<path d="M834.633 103.695H840.172V109.234H834.633V103.695Z" fill="#EC8E05"/>
<path d="M840.164 103.695H845.703V109.234H840.164V103.695Z" fill="#EC8E05"/>
<path d="M840.164 98.1641H845.703V103.703H840.164V98.1641Z" fill="#EC8E05"/>
<path d="M840.164 92.625H845.703V98.164H840.164V92.625Z" fill="#EC8E05"/>
<path d="M834.633 92.625H840.172V98.164H834.633V92.625Z" fill="#EC8E05"/>
<path d="M829.098 92.625H834.637V98.164H829.098V92.625Z" fill="#EC8E05"/>
<path d="M829.098 103.695H834.637V109.234H829.098V103.695Z" fill="#EC8E05"/>
<path d="M806.953 98.1641H812.492V103.703H806.953V98.1641Z" fill="#E6CEAA"/>
<path d="M818.031 98.1641H823.57V103.703H818.031V98.1641Z" fill="#E6CEAA"/>
<path d="M840.164 81.5625H845.703V87.1015H840.164V81.5625Z" fill="#E6CEAA"/>
<path d="M829.094 81.5625H834.633V87.1015H829.094V81.5625Z" fill="#E6CEAA"/>
<path d="M851.242 98.1641H856.781V103.703H851.242V98.1641Z" fill="#E6CEAA"/>
<path d="M862.313 98.1641H867.852V103.703H862.313V98.1641Z" fill="#E6CEAA"/>
<path d="M829.094 114.773H834.633V120.312H829.094V114.773Z" fill="#E6CEAA"/>
<path d="M840.164 114.773H845.703V120.312H840.164V114.773Z" fill="#E6CEAA"/>
</svg>
