<svg width="955" height="637" viewBox="0 0 955 637" fill="none" xmlns="http://www.w3.org/2000/svg">
<path d="M151.32 577V590.92H137.421V577H151.32ZM141.937 586.398H146.826V581.501H141.937V586.398Z" fill="#B24426"/>
<path d="M151.32 622.445V636.365H137.421V622.445H151.32ZM141.937 631.843H146.826V626.946H141.937V631.843Z" fill="#B24426"/>
<path d="M114.722 599.711H128.621V613.631H114.722V599.711ZM124.127 609.109V604.212H119.237V609.109H124.127Z" fill="#B24426"/>
<path d="M160.101 599.711H174V613.631H160.101V599.711ZM169.506 609.109V604.212H164.616V609.109H169.506Z" fill="#B24426"/>
<path d="M141.934 609.139V604.242H146.823V609.139H141.934Z" fill="#EB8C23"/>
<path d="M146.609 599.553V594.656H151.499V599.553H146.609Z" fill="#EB8C23"/>
<path d="M137.227 599.53V594.633H142.116V599.53H137.227Z" fill="#EB8C23"/>
<path d="M146.609 618.725V613.828H151.499V618.725H146.609Z" fill="#EB8C23"/>
<path d="M137.227 618.725V613.828H142.116V618.725H137.227Z" fill="#EB8C23"/>
<path d="M137.229 604.43H132.34V599.533H137.229V604.43Z" fill="#EB8C23"/>
<path d="M137.229 613.828H132.34V608.931H137.229V613.828Z" fill="#EB8C23"/>
<path d="M156.39 604.43H151.5V599.533H156.39V604.43Z" fill="#EB8C23"/>
<path d="M156.39 613.828H151.5V608.931H156.39V613.828Z" fill="#EB8C23"/>
<path d="M816.52 577V590.92H802.621V577H816.52ZM807.136 586.398H812.025V581.501H807.136V586.398Z" fill="#B24426"/>
<path d="M816.52 622.445V636.365H802.621V622.445H816.52ZM807.136 631.843H812.025V626.946H807.136V631.843Z" fill="#B24426"/>
<path d="M779.921 599.711H793.82V613.631H779.921V599.711ZM789.326 609.109V604.212H784.436V609.109H789.326Z" fill="#B24426"/>
<path d="M825.3 599.711H839.199V613.631H825.3V599.711ZM834.705 609.109V604.212H829.815V609.109H834.705Z" fill="#B24426"/>
<path d="M807.133 609.139V604.242H812.022V609.139H807.133Z" fill="#EB8C23"/>
<path d="M811.809 599.553V594.656H816.698V599.553H811.809Z" fill="#EB8C23"/>
<path d="M802.426 599.53V594.633H807.315V599.53H802.426Z" fill="#EB8C23"/>
<path d="M811.809 618.725V613.828H816.698V618.725H811.809Z" fill="#EB8C23"/>
<path d="M802.426 618.725V613.828H807.315V618.725H802.426Z" fill="#EB8C23"/>
<path d="M802.429 604.43H797.539V599.533H802.429V604.43Z" fill="#EB8C23"/>
<path d="M802.429 613.828H797.539V608.931H802.429V613.828Z" fill="#EB8C23"/>
<path d="M821.589 604.43H816.699V599.533H821.589V604.43Z" fill="#EB8C23"/>
<path d="M821.589 613.828H816.699V608.931H821.589V613.828Z" fill="#EB8C23"/>
<path d="M54.5898 476.609V494.531H36.6951V476.609H54.5898ZM42.4743 488.743H48.7758V482.432H42.4743V488.743Z" fill="#B24426"/>
<path d="M6.92255 482.672H0.621094L0.621094 476.361H6.92255L6.92255 482.672Z" fill="#E7D0AB"/>
<path d="M6.92255 494.766H0.621094L0.621094 488.455H6.92255L6.92255 494.766Z" fill="#E7D0AB"/>
<path d="M90.6218 482.672H84.3203V476.361H90.6218V482.672Z" fill="#E7D0AB"/>
<path d="M90.6218 494.766H84.3203V488.455H90.6218V494.766Z" fill="#E7D0AB"/>
<path d="M48.4922 446.795V440.484H54.7936V446.795H48.4922Z" fill="#E7D0AB"/>
<path d="M36.4102 446.827V440.516H42.7116V446.827H36.4102Z" fill="#E7D0AB"/>
<path d="M48.5273 530.647V524.336H54.8289V530.647H48.5273Z" fill="#E7D0AB"/>
<path d="M36.4453 530.678V524.367H42.7469V530.678H36.4453Z" fill="#E7D0AB"/>
<path d="M48.7702 458.375H42.4688V452.064H48.7702V458.375Z" fill="#A08E33"/>
<path d="M48.7702 470.508H42.4688V464.197H48.7702V470.508Z" fill="#A08E33"/>
<path d="M48.7702 506.977H42.4688V500.666H48.7702V506.977Z" fill="#A08E33"/>
<path d="M48.7702 519.07H42.4688V512.759H48.7702V519.07Z" fill="#A08E33"/>
<path d="M18.4766 482.392V488.703H12.175V482.392H18.4766Z" fill="#A08E33"/>
<path d="M30.5586 482.423V488.734H24.257V482.423H30.5586Z" fill="#A08E33"/>
<path d="M66.9766 482.423V488.734H60.675V482.423H66.9766Z" fill="#A08E33"/>
<path d="M79.0586 482.423V488.734H72.757V482.423H79.0586Z" fill="#A08E33"/>
<path d="M915.254 472.117V491.526H895.874V472.117H915.254ZM902.133 485.258H908.957V478.423H902.133V485.258Z" fill="#B24426"/>
<path d="M863.633 478.695H856.809V471.861H863.633V478.695Z" fill="#E7D0AB"/>
<path d="M863.633 491.797H856.809V484.962H863.633V491.797Z" fill="#E7D0AB"/>
<path d="M954.278 478.695H947.453V471.861H954.278V478.695Z" fill="#E7D0AB"/>
<path d="M954.278 491.797H947.453V484.962H954.278V491.797Z" fill="#E7D0AB"/>
<path d="M908.648 439.835V433H915.473V439.835H908.648Z" fill="#E7D0AB"/>
<path d="M895.562 439.874V433.039H902.387V439.874H895.562Z" fill="#E7D0AB"/>
<path d="M908.691 530.647V523.812H915.516V530.647H908.691Z" fill="#E7D0AB"/>
<path d="M895.605 530.686V523.852H902.43V530.686H895.605Z" fill="#E7D0AB"/>
<path d="M908.953 452.375H902.129V445.54H908.953V452.375Z" fill="#A08E33"/>
<path d="M908.953 465.516H902.129V458.681H908.953V465.516Z" fill="#A08E33"/>
<path d="M908.953 505.008H902.129V498.173H908.953V505.008Z" fill="#A08E33"/>
<path d="M908.953 518.109H902.129V511.275H908.953V518.109Z" fill="#A08E33"/>
<path d="M876.148 478.392V485.227H869.324V478.392H876.148Z" fill="#A08E33"/>
<path d="M889.234 478.431V485.266H882.41V478.431H889.234Z" fill="#A08E33"/>
<path d="M928.676 478.431V485.266H921.851V478.431H928.676Z" fill="#A08E33"/>
<path d="M941.762 478.431V485.266H934.937V478.431H941.762Z" fill="#A08E33"/>
<path d="M168.716 191.285V176.562H154.016V191.285H168.716ZM158.776 181.33H163.929V186.491H158.776V181.33Z" fill="#EB8C23"/>
<path d="M163.59 167.001V172.188H168.769V167.001H163.59Z" fill="#E7D0AB"/>
<path d="M153.648 167.001V172.188H158.827V167.001H153.648Z" fill="#E7D0AB"/>
<path d="M163.59 195.61V200.797H168.769V195.61H163.59Z" fill="#E7D0AB"/>
<path d="M153.648 195.61V200.797H158.827V195.61H153.648Z" fill="#E7D0AB"/>
<path d="M182.555 181.305V186.492H187.734V181.305H182.555Z" fill="#E7D0AB"/>
<path d="M172.613 181.305V186.492H177.792V181.305H172.613Z" fill="#E7D0AB"/>
<path d="M144.941 181.305V186.492H150.12V181.305H144.941Z" fill="#E7D0AB"/>
<path d="M135 181.305V186.492H140.179V181.305H135Z" fill="#E7D0AB"/>
<path d="M800.716 191.285V176.562H786.016V191.285H800.716ZM790.776 181.33H795.929V186.491H790.776V181.33Z" fill="#EB8C23"/>
<path d="M795.59 167.001V172.188H800.769V167.001H795.59Z" fill="#E7D0AB"/>
<path d="M785.648 167.001V172.188H790.827V167.001H785.648Z" fill="#E7D0AB"/>
<path d="M795.59 195.61V200.797H800.769V195.61H795.59Z" fill="#E7D0AB"/>
<path d="M785.648 195.61V200.797H790.827V195.61H785.648Z" fill="#E7D0AB"/>
<path d="M814.555 181.305V186.492H819.734V181.305H814.555Z" fill="#E7D0AB"/>
<path d="M804.613 181.305V186.492H809.792V181.305H804.613Z" fill="#E7D0AB"/>
<path d="M776.941 181.305V186.492H782.12V181.305H776.941Z" fill="#E7D0AB"/>
<path d="M767 181.305V186.492H772.179V181.305H767Z" fill="#E7D0AB"/>
<path d="M100.207 323.234V317.078H94.0602V323.234H100.207Z" fill="#A08E33"/>
<path d="M94.2969 311.156V305H88.15V311.156H94.2969Z" fill="#A08E33"/>
<path d="M106.094 311.18V305.023H99.9469V311.18H106.094Z" fill="#A08E33"/>
<path d="M94.2969 335.281V329.125H88.15V335.281H94.2969Z" fill="#A08E33"/>
<path d="M106.094 335.305V329.148H99.9469V335.305H106.094Z" fill="#A08E33"/>
<path d="M106.091 317.312H112.238V311.156H106.091V317.312Z" fill="#A08E33"/>
<path d="M106.091 329.125H112.238V322.969H106.091V329.125Z" fill="#A08E33"/>
<path d="M82.0016 317.312H88.1484V311.156H82.0016V317.312Z" fill="#A08E33"/>
<path d="M82.0016 329.125H88.1484V322.969H82.0016V329.125Z" fill="#A08E33"/>
<path d="M861.207 324.234V318.078H855.06V324.234H861.207Z" fill="#A08E33"/>
<path d="M855.297 312.156V306H849.15V312.156H855.297Z" fill="#A08E33"/>
<path d="M867.094 312.18V306.023H860.947V312.18H867.094Z" fill="#A08E33"/>
<path d="M855.297 336.281V330.125H849.15V336.281H855.297Z" fill="#A08E33"/>
<path d="M867.094 336.305V330.148H860.947V336.305H867.094Z" fill="#A08E33"/>
<path d="M867.091 318.312H873.238V312.156H867.091V318.312Z" fill="#A08E33"/>
<path d="M867.091 330.125H873.238V323.969H867.091V330.125Z" fill="#A08E33"/>
<path d="M843.002 318.312H849.148V312.156H843.002V318.312Z" fill="#A08E33"/>
<path d="M843.002 330.125H849.148V323.969H843.002V330.125Z" fill="#A08E33"/>
<path d="M334.936 90.534V79.8984H324.316V90.534H334.936ZM327.769 83.3301H331.51V87.0762H327.769V83.3301Z" fill="#B24426"/>
<path d="M331.246 73.0118V76.7578H334.987V73.0118H331.246Z" fill="#F0E2CC"/>
<path d="M324.055 72.9883V76.7344H327.795V72.9883H324.055Z" fill="#F0E2CC"/>
<path d="M331.246 93.6837V97.4297H334.987V93.6837H331.246Z" fill="#F0E2CC"/>
<path d="M324.055 93.6601V97.4062H327.795V93.6601H324.055Z" fill="#F0E2CC"/>
<path d="M344.746 83.3243V87.0703H348.487V83.3243H344.746Z" fill="#A08E33"/>
<path d="M337.578 83.3243V87.0703H341.319V83.3243H337.578Z" fill="#A08E33"/>
<path d="M317.57 83.3555V87.1016H321.311V83.3555H317.57Z" fill="#A08E33"/>
<path d="M310.402 83.332V87.0781H314.143V83.332H310.402Z" fill="#A08E33"/>
<path d="M331.326 107.742H327.586V111.488H331.326V107.742Z" fill="#A08E33"/>
<path d="M331.326 100.539H327.586V104.285H331.326V100.539Z" fill="#A08E33"/>
<path d="M331.326 65.1797H327.586V68.9257H331.326V65.1797Z" fill="#A08E33"/>
<path d="M331.326 58H327.586V61.746H331.326V58Z" fill="#A08E33"/>
<path d="M303.002 83.4844H306.742V79.7384H303.002V83.4844Z" fill="#F0E2CC"/>
<path d="M303.002 90.6641H306.742V86.918H303.002V90.6641Z" fill="#F0E2CC"/>
<path d="M351.861 83.4844H355.602V79.7384H351.861V83.4844Z" fill="#F0E2CC"/>
<path d="M351.861 90.6641H355.602V86.918H351.861V90.6641Z" fill="#F0E2CC"/>
<path d="M630.936 90.534V79.8984H620.316V90.534H630.936ZM623.769 83.3301H627.51V87.0762H623.769V83.3301Z" fill="#B24426"/>
<path d="M627.246 73.0118V76.7578H630.987V73.0118H627.246Z" fill="#F0E2CC"/>
<path d="M620.055 72.9883V76.7344H623.795V72.9883H620.055Z" fill="#F0E2CC"/>
<path d="M627.246 93.6837V97.4297H630.987V93.6837H627.246Z" fill="#F0E2CC"/>
<path d="M620.055 93.6601V97.4062H623.795V93.6601H620.055Z" fill="#F0E2CC"/>
<path d="M640.746 83.3243V87.0703H644.487V83.3243H640.746Z" fill="#A08E33"/>
<path d="M633.578 83.3243V87.0703H637.319V83.3243H633.578Z" fill="#A08E33"/>
<path d="M613.57 83.3555V87.1016H617.311V83.3555H613.57Z" fill="#A08E33"/>
<path d="M606.402 83.332V87.0781H610.143V83.332H606.402Z" fill="#A08E33"/>
<path d="M627.326 107.742H623.586V111.488H627.326V107.742Z" fill="#A08E33"/>
<path d="M627.326 100.539H623.586V104.285H627.326V100.539Z" fill="#A08E33"/>
<path d="M627.326 65.1797H623.586V68.9257H627.326V65.1797Z" fill="#A08E33"/>
<path d="M627.326 58H623.586V61.746H627.326V58Z" fill="#A08E33"/>
<path d="M599.002 83.4844H602.742V79.7384H599.002V83.4844Z" fill="#F0E2CC"/>
<path d="M599.002 90.6641H602.742V86.918H599.002V90.6641Z" fill="#F0E2CC"/>
<path d="M647.861 83.4844H651.602V79.7384H647.861V83.4844Z" fill="#F0E2CC"/>
<path d="M647.861 90.6641H651.602V86.918H647.861V90.6641Z" fill="#F0E2CC"/>
<path d="M469.09 11.3203V28.8193H486.563V11.3203H469.09ZM480.887 23.1347H474.74V16.9787H480.887V23.1347Z" fill="#A08E33"/>
<path d="M498.045 22.8906H491.898V29.0467H498.045V22.8906Z" fill="#B24426"/>
<path d="M498.045 11.0781H491.898V17.2342H498.045V11.0781Z" fill="#B24426"/>
<path d="M464.147 22.8906H458V29.0467H464.147V22.8906Z" fill="#B24426"/>
<path d="M464.147 11.0781H458V17.2342H464.147V11.0781Z" fill="#B24426"/>
<path d="M475.188 40.1326V33.9766H469.041V40.1326H475.188Z" fill="#B24426"/>
<path d="M486.984 40.1092V33.9531H480.838V40.1092H486.984Z" fill="#B24426"/>
<path d="M475.188 6.15606V0L469.041 0V6.15606H475.188Z" fill="#B24426"/>
<path d="M486.984 6.1561V0L480.838 0V6.1561H486.984Z" fill="#B24426"/>
</svg>
