<svg width="1080" height="200" viewBox="0 0 1080 200" fill="none" xmlns="http://www.w3.org/2000/svg">
<rect width="1080" height="200" fill="#B14426"/>
<path d="M445.812 115.078H450.832L455.091 125.456H455.283L459.54 115.078H464.577V131.849H460.62V121.547H460.479L456.444 131.744H453.928L449.892 121.489H449.752V131.849H445.812V115.078Z" fill="#E7D0AB"/>
<path d="M477.26 115.078H481.296V125.896C481.333 127.032 481.031 128.153 480.429 129.116C479.827 130.08 478.951 130.842 477.913 131.306C476.736 131.805 475.47 132.063 474.191 132.063C472.912 132.063 471.646 131.805 470.468 131.306C469.453 130.843 468.592 130.098 467.987 129.159C467.382 128.179 467.075 127.044 467.103 125.892V115.078H471.156V125.544C471.148 126.084 471.281 126.618 471.541 127.091C471.79 127.54 472.16 127.909 472.609 128.156C473.103 128.41 473.65 128.542 474.204 128.542C474.759 128.542 475.306 128.41 475.799 128.156C476.25 127.91 476.623 127.542 476.876 127.095C477.138 126.622 477.27 126.088 477.26 125.548V115.078Z" fill="#E7D0AB"/>
<path d="M492.913 120.102C492.898 119.83 492.826 119.565 492.701 119.323C492.576 119.081 492.401 118.868 492.188 118.699C491.759 118.363 491.148 118.195 490.357 118.194C489.911 118.181 489.468 118.251 489.048 118.399C488.737 118.508 488.464 118.702 488.26 118.96C488.086 119.197 487.992 119.482 487.991 119.775C487.974 120.007 488.027 120.238 488.143 120.438C488.266 120.641 488.433 120.813 488.633 120.942C488.877 121.101 489.14 121.23 489.415 121.326C489.752 121.445 490.097 121.541 490.447 121.613L491.888 121.941C492.646 122.098 493.383 122.34 494.087 122.662C494.677 122.93 495.219 123.292 495.693 123.734C496.12 124.138 496.456 124.627 496.681 125.17C496.913 125.748 497.029 126.365 497.025 126.988C497.046 127.958 496.766 128.911 496.222 129.715C495.649 130.507 494.857 131.113 493.943 131.46C492.951 131.863 491.756 132.065 490.359 132.065C489.106 132.09 487.86 131.874 486.688 131.429C485.701 131.051 484.853 130.38 484.257 129.507C483.678 128.65 483.38 127.566 483.363 126.256H487.245C487.26 126.736 487.41 127.202 487.68 127.601C487.947 127.97 488.315 128.254 488.74 128.419C489.24 128.615 489.773 128.709 490.309 128.698C490.783 128.71 491.256 128.635 491.704 128.477C492.051 128.357 492.359 128.144 492.594 127.862C492.799 127.607 492.911 127.29 492.913 126.963C492.914 126.665 492.809 126.376 492.617 126.148C492.374 125.885 492.072 125.682 491.736 125.558C491.247 125.362 490.741 125.207 490.226 125.095L488.473 124.685C487.023 124.352 485.88 123.813 485.043 123.067C484.206 122.322 483.794 121.317 483.805 120.054C483.78 119.078 484.074 118.121 484.641 117.327C485.239 116.517 486.045 115.885 486.974 115.499C488.05 115.047 489.208 114.825 490.374 114.846C491.537 114.819 492.692 115.043 493.76 115.503C494.662 115.898 495.435 116.538 495.991 117.35C496.528 118.167 496.81 119.125 496.802 120.102H492.913Z" fill="#E7D0AB"/>
<path d="M499.066 131.849V115.078H510.76V118.37H503.119V121.81H510.163V125.11H503.119V128.557H510.76V131.849H499.066Z" fill="#E7D0AB"/>
<path d="M523.459 115.078H527.495V125.896C527.532 127.032 527.231 128.153 526.628 129.116C526.026 130.08 525.15 130.842 524.113 131.306C522.935 131.805 521.669 132.063 520.39 132.063C519.111 132.063 517.845 131.805 516.668 131.306C515.652 130.843 514.791 130.098 514.187 129.159C513.581 128.179 513.274 127.044 513.303 125.892V115.078H517.356V125.544C517.347 126.084 517.48 126.618 517.74 127.091C517.989 127.54 518.359 127.909 518.809 128.156C519.302 128.41 519.849 128.542 520.404 128.542C520.958 128.542 521.505 128.41 521.999 128.156C522.447 127.908 522.817 127.539 523.067 127.091C523.329 126.618 523.462 126.085 523.452 125.544L523.459 115.078Z" fill="#E7D0AB"/>
<path d="M530.043 115.078H535.063L539.321 125.456H539.513L543.772 115.078H548.792V131.849H544.848V121.547H544.71L540.674 131.744H538.159L534.123 121.489H533.985V131.849H530.043V115.078Z" fill="#E7D0AB"/>
<path d="M571.528 121.148H567.433C567.384 120.752 567.271 120.367 567.096 120.008C566.933 119.678 566.705 119.383 566.426 119.142C566.135 118.895 565.8 118.707 565.438 118.588C565.032 118.456 564.608 118.391 564.181 118.396C563.436 118.376 562.703 118.585 562.08 118.994C561.471 119.424 561.003 120.026 560.735 120.723C560.102 122.513 560.102 124.466 560.735 126.256C560.992 126.947 561.462 127.538 562.076 127.945C562.69 128.351 563.418 128.553 564.154 128.52C564.569 128.525 564.981 128.467 565.378 128.347C565.732 128.242 566.062 128.071 566.353 127.843C566.636 127.621 566.873 127.346 567.05 127.032C567.24 126.696 567.37 126.329 567.435 125.949L571.53 125.974C571.452 126.738 571.234 127.482 570.886 128.168C570.515 128.906 570.018 129.573 569.416 130.138C568.758 130.752 567.986 131.232 567.144 131.551C566.161 131.915 565.118 132.092 564.069 132.073C562.647 132.097 561.244 131.752 559.995 131.07C558.785 130.391 557.799 129.374 557.157 128.143C556.464 126.862 556.117 125.3 556.117 123.458C556.117 121.616 556.47 120.052 557.174 118.767C557.825 117.537 558.818 116.522 560.032 115.842C561.269 115.168 562.659 114.825 564.068 114.845C565.023 114.836 565.974 114.978 566.885 115.265C567.714 115.528 568.486 115.945 569.16 116.493C569.821 117.038 570.364 117.711 570.757 118.471C571.184 119.305 571.446 120.214 571.528 121.148Z" fill="#E7D0AB"/>
<path d="M577.032 131.849H572.676L578.333 115.078H583.728L589.388 131.849H585.033L581.093 119.304H580.962L577.032 131.849ZM576.456 125.248H585.563V128.323H576.45L576.456 125.248Z" fill="#E7D0AB"/>
<path d="M588.539 118.37V115.078H602.714V118.37H597.629V131.849H593.632V118.37H588.539Z" fill="#E7D0AB"/>
<path d="M614.865 115.078H618.901V125.896C618.94 127.032 618.638 128.153 618.036 129.117C617.433 130.081 616.557 130.843 615.519 131.306C614.342 131.805 613.076 132.063 611.797 132.063C610.519 132.063 609.253 131.805 608.076 131.306C607.06 130.843 606.198 130.098 605.595 129.159C604.989 128.179 604.681 127.044 604.709 125.892V115.078H608.764V125.544C608.755 126.084 608.888 126.618 609.148 127.091C609.396 127.54 609.767 127.909 610.217 128.156C610.71 128.41 611.257 128.542 611.812 128.542C612.367 128.542 612.913 128.41 613.407 128.156C613.856 127.909 614.228 127.542 614.481 127.095C614.742 126.622 614.875 126.088 614.865 125.548V115.078Z" fill="#E7D0AB"/>
<path d="M621.445 131.852V115.08H628.364C629.486 115.052 630.6 115.283 631.619 115.755C632.499 116.177 633.235 116.849 633.733 117.688C634.247 118.595 634.505 119.624 634.479 120.665C634.479 121.828 634.223 122.816 633.71 123.627C633.191 124.446 632.438 125.091 631.548 125.477C630.501 125.923 629.371 126.139 628.233 126.111H623.851V122.917H627.48C628.003 122.932 628.524 122.85 629.017 122.675C629.4 122.537 629.729 122.279 629.953 121.939C630.181 121.555 630.293 121.112 630.274 120.665C630.291 120.214 630.18 119.766 629.953 119.376C629.729 119.025 629.399 118.756 629.011 118.607C628.521 118.422 627.998 118.334 627.474 118.349H625.475V131.854L621.445 131.852ZM630.889 124.186L635.065 131.852H630.645L626.55 124.186H630.889Z" fill="#E7D0AB"/>
<path d="M480.776 136.211V152.982H476.723V136.211H480.776Z" fill="#E7D0AB"/>
<path d="M497.576 136.211V152.982H494.136L487.461 143.302H487.354V152.982H483.301V136.211H486.789L493.396 145.874H493.534V136.211H497.576Z" fill="#E7D0AB"/>
<path d="M506.319 152.982H500.129V136.211H506.321C508.029 136.211 509.502 136.545 510.741 137.214C511.962 137.867 512.959 138.871 513.602 140.097C514.275 141.35 514.611 142.847 514.611 144.588C514.611 146.329 514.276 147.831 513.606 149.093C512.964 150.319 511.967 151.324 510.745 151.975C509.498 152.647 508.023 152.982 506.319 152.982ZM504.174 149.523H506.163C506.985 149.548 507.802 149.384 508.55 149.043C509.213 148.713 509.739 148.16 510.034 147.48C510.371 146.756 510.539 145.791 510.537 144.584C510.536 143.377 510.367 142.416 510.03 141.701C509.729 141.024 509.2 140.473 508.535 140.145C507.772 139.804 506.941 139.64 506.106 139.666H504.174V149.523Z" fill="#E7D0AB"/>
<path d="M532.792 144.598C532.792 146.445 532.437 148.01 531.727 149.291C531.067 150.523 530.066 151.538 528.844 152.216C527.596 152.89 526.196 153.234 524.778 153.213C523.357 153.235 521.954 152.888 520.707 152.206C519.491 151.524 518.496 150.509 517.838 149.279C517.131 147.998 516.777 146.438 516.777 144.598C516.777 142.758 517.131 141.194 517.838 139.907C518.493 138.676 519.489 137.66 520.707 136.982C521.963 136.327 523.359 135.984 524.776 135.984C526.192 135.984 527.588 136.327 528.844 136.982C530.066 137.659 531.067 138.675 531.727 139.907C532.437 141.188 532.792 142.752 532.792 144.598ZM528.648 144.598C528.675 143.655 528.52 142.715 528.191 141.83C527.93 141.139 527.468 140.542 526.863 140.118C526.408 139.802 525.887 139.594 525.34 139.51C524.793 139.426 524.234 139.468 523.705 139.633C523.177 139.798 522.693 140.082 522.291 140.463C521.889 140.844 521.579 141.312 521.386 141.83C520.768 143.624 520.768 145.573 521.386 147.367C521.645 148.06 522.109 148.658 522.718 149.08C523.326 149.502 524.048 149.728 524.788 149.728C525.528 149.728 526.251 149.502 526.859 149.08C527.467 148.658 527.932 148.06 528.191 147.367C528.52 146.482 528.675 145.542 528.648 144.598Z" fill="#E7D0AB"/>
<path d="M549.423 136.211V152.982H545.983L539.309 143.302H539.201V152.982H535.148V136.211H538.636L545.238 145.874H545.376V136.211H549.423Z" fill="#E7D0AB"/>
<path d="M551.973 152.982V136.211H563.669V139.503H556.028V142.943H563.071V146.243H556.028V149.69H563.669V152.982H551.973Z" fill="#E7D0AB"/>
<path d="M575.256 141.243C575.242 140.971 575.17 140.705 575.045 140.463C574.92 140.221 574.745 140.009 574.532 139.84C574.103 139.504 573.492 139.336 572.7 139.334C572.255 139.322 571.812 139.391 571.392 139.54C571.081 139.647 570.808 139.842 570.606 140.101C570.431 140.337 570.336 140.622 570.335 140.916C570.317 141.147 570.37 141.378 570.486 141.579C570.609 141.782 570.777 141.954 570.977 142.082C571.221 142.242 571.483 142.371 571.759 142.467C572.096 142.585 572.441 142.681 572.791 142.753L574.232 143.082C574.99 143.239 575.728 143.48 576.432 143.802C577.021 144.071 577.563 144.434 578.037 144.875C578.463 145.278 578.799 145.766 579.023 146.308C579.254 146.886 579.371 147.504 579.367 148.126C579.388 149.096 579.108 150.049 578.566 150.853C577.992 151.645 577.199 152.252 576.284 152.598C575.293 153.002 574.098 153.204 572.7 153.204C571.448 153.23 570.203 153.016 569.032 152.573C568.045 152.195 567.196 151.525 566.601 150.652C566.023 149.795 565.725 148.711 565.707 147.4H569.589C569.604 147.88 569.754 148.347 570.023 148.745C570.291 149.115 570.659 149.399 571.084 149.564C571.583 149.759 572.116 149.854 572.652 149.843C573.127 149.855 573.6 149.78 574.048 149.622C574.395 149.501 574.702 149.289 574.937 149.007C575.142 148.752 575.255 148.434 575.256 148.107C575.257 147.809 575.153 147.521 574.962 147.292C574.718 147.029 574.416 146.827 574.08 146.702C573.591 146.506 573.085 146.351 572.57 146.239L570.817 145.83C569.365 145.497 568.222 144.957 567.387 144.212C566.551 143.466 566.136 142.458 566.141 141.187C566.116 140.211 566.41 139.254 566.977 138.46C567.576 137.653 568.383 137.024 569.312 136.64C570.388 136.188 571.546 135.965 572.712 135.987C573.875 135.959 575.03 136.184 576.098 136.644C577 137.039 577.773 137.678 578.329 138.491C578.866 139.307 579.149 140.265 579.14 141.243H575.256Z" fill="#E7D0AB"/>
<path d="M585.487 136.211V152.982H581.43V136.211H585.487Z" fill="#E7D0AB"/>
<path d="M591.661 152.982H587.305L592.968 136.211H598.366L604.024 152.982H599.662L595.722 140.437H595.591L591.661 152.982ZM591.085 146.381H600.192V149.456H591.079L591.085 146.381Z" fill="#E7D0AB"/>
<path d="M565.44 57.3997L565.561 57.2883C567.079 55.9046 567.204 54.2519 567.204 52.3935V52.332C567.204 50.7792 567.204 49.4397 566.395 48.3501C565.319 46.8991 563.37 46.7031 561.606 46.7031H540.005C539.844 46.7031 523.793 46.7627 518.414 46.7627C516.65 46.7627 514.701 46.9549 513.625 48.4097C512.814 49.5032 512.814 50.8426 512.814 52.3935V52.4531C512.814 54.3114 512.937 55.9622 514.457 57.3478L514.57 57.4516C518.166 60.9108 520.509 63.2169 522.008 64.7275L517.559 64.7717C515.674 64.7717 514.138 66.2149 514.138 67.9868V79.9326C514.138 81.6833 515.622 83.0939 517.517 83.1458L522.012 83.1919C520.474 84.7293 518.168 87.0201 514.549 90.4946L514.428 90.6061C512.908 91.9898 512.785 93.6425 512.785 95.5009V95.5585C512.785 97.1113 512.785 98.4412 513.592 99.5404C514.668 100.991 516.619 101.187 518.383 101.187H561.577C563.341 101.187 565.29 100.995 566.366 99.5404C567.175 98.4508 567.175 97.1113 567.173 95.5585V95.5162C567.193 93.6348 567.083 91.9648 565.559 90.5753C565.521 90.5388 565.48 90.5042 565.444 90.4677C561.817 86.9778 559.469 84.6601 557.981 83.165L562.43 83.1208C564.316 83.1208 565.849 81.6775 565.849 79.9056V67.958C565.849 66.2072 564.366 64.7966 562.471 64.7428L557.976 64.6986C559.513 63.1535 561.819 60.8666 565.44 57.3997ZM562.415 80.1017L556.531 80.1593H556.49C556.009 80.1698 555.54 80.3192 555.142 80.5896C554.743 80.8599 554.431 81.2397 554.244 81.6833C554.073 82.0946 554.025 82.5469 554.108 82.9846C554.191 83.4224 554.399 83.8264 554.709 84.147L554.726 84.1643C556.058 85.5268 558.637 88.1039 563.349 92.6413L563.512 92.795C563.849 93.1006 564.164 93.3888 564.145 95.4855V95.5431C564.145 96.4752 564.145 97.438 563.929 97.7282C563.877 97.7993 563.514 98.1548 561.564 98.1548H539.98V73.9405H517.157V67.9868C517.157 67.9387 517.299 67.7946 517.576 67.7946L523.445 67.735C523.939 67.7418 524.423 67.6023 524.837 67.3341C525.251 67.066 525.577 66.6812 525.773 66.2284C525.945 65.8153 525.991 65.3603 525.905 64.9211C525.819 64.4818 525.604 64.078 525.288 63.7608C523.96 62.3887 521.372 59.8096 516.658 55.2723L516.49 55.1167C516.152 54.8092 515.833 54.519 515.833 52.4531V52.3935C515.833 51.4614 515.833 50.4986 516.046 50.2104C516.1 50.1393 516.463 49.7837 518.414 49.7837C523.795 49.7837 539.853 49.7242 540.009 49.7242V73.9597H562.834V79.9037C562.834 79.9518 562.69 80.1017 562.415 80.1017Z" fill="#E7D0AB"/>
</svg>
