<?xml version="1.0" encoding="UTF-8"?>
<svg id="Layer_1" xmlns="http://www.w3.org/2000/svg" xmlns:xlink="http://www.w3.org/1999/xlink" version="1.1" viewBox="0 0 288 432">
  <!-- Generator: Adobe Illustrator 29.3.1, SVG Export Plug-In . SVG Version: 2.1.0 Build 151)  -->
  <defs>
    <style>
      .st0 {
        fill: #b0441f;
        fill-rule: evenodd;
      }

      .st1 {
        fill: #f0deb9;
      }
    </style>
  </defs>
  <g>
    <path class="st0" d="M0,0v432h288V0H0ZM278.5,360.1H9.8V31.7h268.7v328.4h0Z"/>
    <g>
      <path class="st0" d="M5.7,8.5v415h276.7V8.5H5.7ZM275.5,360.1H12.8V31.7h262.7v328.4h0Z"/>
      <g>
        <rect class="st1" x="68.9" y="346.9" width="1.5" height="1.5"/>
        <g>
          <rect class="st1" x="67.4" y="344" width="1.5" height="1.5"/>
          <rect class="st1" x="70.3" y="344" width="1.5" height="1.5"/>
          <rect class="st1" x="65.9" y="345.5" width="1.5" height="1.5"/>
          <rect class="st1" x="71.8" y="345.5" width="1.5" height="1.5"/>
        </g>
        <g>
          <rect class="st1" x="70.3" y="349.9" width="1.5" height="1.5"/>
          <rect class="st1" x="67.4" y="349.9" width="1.5" height="1.5"/>
          <rect class="st1" x="71.8" y="348.4" width="1.5" height="1.5"/>
          <rect class="st1" x="65.9" y="348.4" width="1.5" height="1.5"/>
        </g>
      </g>
      <g>
        <rect class="st1" x="217.9" y="346.9" width="1.5" height="1.5"/>
        <g>
          <rect class="st1" x="216.4" y="344" width="1.5" height="1.5"/>
          <rect class="st1" x="219.4" y="344" width="1.5" height="1.5"/>
          <rect class="st1" x="214.9" y="345.5" width="1.5" height="1.5"/>
          <rect class="st1" x="220.8" y="345.5" width="1.5" height="1.5"/>
        </g>
        <g>
          <rect class="st1" x="219.4" y="349.9" width="1.5" height="1.5"/>
          <rect class="st1" x="216.4" y="349.9" width="1.5" height="1.5"/>
          <rect class="st1" x="220.8" y="348.4" width="1.5" height="1.5"/>
          <rect class="st1" x="214.9" y="348.4" width="1.5" height="1.5"/>
        </g>
      </g>
      <g>
        <g>
          <rect class="st1" x="70.6" y="384.6" width="1.2" height="1.2"/>
          <rect class="st1" x="68.2" y="384.6" width="1.2" height="1.2"/>
        </g>
        <g>
          <rect class="st1" x="69.4" y="387" width="1.2" height="1.2"/>
          <rect class="st1" x="69.4" y="389.4" width="1.2" height="1.2"/>
        </g>
        <g>
          <rect class="st1" x="68.2" y="384.6" width="1.2" height="1.2"/>
          <rect class="st1" x="68.2" y="382.2" width="1.2" height="1.2"/>
        </g>
        <g>
          <rect class="st1" x="65.8" y="383.4" width="1.2" height="1.2"/>
          <rect class="st1" x="63.4" y="383.4" width="1.2" height="1.2"/>
        </g>
        <g>
          <rect class="st1" x="68.2" y="382.2" width="1.2" height="1.2"/>
          <rect class="st1" x="70.6" y="382.2" width="1.2" height="1.2"/>
        </g>
        <g>
          <rect class="st1" x="69.4" y="379.7" width="1.2" height="1.2"/>
          <rect class="st1" x="69.4" y="377.3" width="1.2" height="1.2"/>
        </g>
        <g>
          <rect class="st1" x="70.6" y="382.2" width="1.2" height="1.2"/>
          <rect class="st1" x="70.6" y="384.6" width="1.2" height="1.2"/>
        </g>
        <g>
          <rect class="st1" x="73.1" y="383.4" width="1.2" height="1.2"/>
          <rect class="st1" x="75.5" y="383.4" width="1.2" height="1.2"/>
        </g>
      </g>
      <g>
        <g>
          <rect class="st1" x="46.5" y="392.4" width="1.2" height="1.2"/>
          <g>
            <rect class="st1" x="45.2" y="394.9" width="1.2" height="1.2"/>
            <rect class="st1" x="47.7" y="394.9" width="1.2" height="1.2"/>
            <rect class="st1" x="44" y="393.7" width="1.2" height="1.2"/>
            <rect class="st1" x="48.9" y="393.7" width="1.2" height="1.2"/>
          </g>
          <g>
            <rect class="st1" x="47.7" y="390" width="1.2" height="1.2"/>
            <rect class="st1" x="45.2" y="390" width="1.2" height="1.2"/>
            <rect class="st1" x="48.9" y="391.2" width="1.2" height="1.2"/>
            <rect class="st1" x="44" y="391.2" width="1.2" height="1.2"/>
          </g>
        </g>
        <g>
          <g>
            <rect class="st1" x="47.7" y="397.3" width="1.2" height="1.2"/>
            <rect class="st1" x="45.2" y="397.3" width="1.2" height="1.2"/>
          </g>
          <g>
            <rect class="st1" x="46.5" y="399.7" width="1.2" height="1.2"/>
            <rect class="st1" x="46.5" y="402.1" width="1.2" height="1.2"/>
          </g>
        </g>
        <g>
          <g>
            <rect class="st1" x="41.6" y="393.7" width="1.2" height="1.2"/>
            <rect class="st1" x="41.6" y="391.2" width="1.2" height="1.2"/>
          </g>
          <g>
            <rect class="st1" x="39.2" y="392.4" width="1.2" height="1.2"/>
            <rect class="st1" x="36.8" y="392.4" width="1.2" height="1.2"/>
          </g>
        </g>
        <g>
          <g>
            <rect class="st1" x="45.2" y="387.6" width="1.2" height="1.2"/>
            <rect class="st1" x="47.7" y="387.6" width="1.2" height="1.2"/>
          </g>
          <g>
            <rect class="st1" x="46.5" y="385.2" width="1.2" height="1.2"/>
            <rect class="st1" x="46.5" y="382.8" width="1.2" height="1.2"/>
          </g>
        </g>
        <g>
          <g>
            <rect class="st1" x="51.3" y="391.2" width="1.2" height="1.2"/>
            <rect class="st1" x="51.3" y="393.7" width="1.2" height="1.2"/>
          </g>
          <g>
            <rect class="st1" x="53.7" y="392.4" width="1.2" height="1.2"/>
            <rect class="st1" x="56.1" y="392.4" width="1.2" height="1.2"/>
          </g>
        </g>
      </g>
      <g>
        <g>
          <g>
            <rect class="st1" x="98.8" y="399.6" width="1.4" height="1.4"/>
            <rect class="st1" x="97.4" y="399.6" width="1.4" height="1.4"/>
            <rect class="st1" x="96" y="399.6" width="1.4" height="1.4"/>
            <rect class="st1" x="96" y="401" width="1.4" height="1.4"/>
            <rect class="st1" x="96" y="402.4" width="1.4" height="1.4"/>
            <rect class="st1" x="97.4" y="402.4" width="1.4" height="1.4"/>
            <rect class="st1" x="98.8" y="402.4" width="1.4" height="1.4"/>
            <rect class="st1" x="98.8" y="401" width="1.4" height="1.4"/>
          </g>
          <rect class="st1" x="98.8" y="399.6" width="1.4" height="1.4"/>
          <rect class="st1" x="96" y="399.6" width="1.4" height="1.4"/>
        </g>
        <g>
          <rect class="st1" x="98.8" y="396.9" width="1.4" height="1.4"/>
          <rect class="st1" x="96" y="396.9" width="1.4" height="1.4"/>
        </g>
        <g>
          <rect class="st1" x="101.5" y="402.4" width="1.4" height="1.4"/>
          <rect class="st1" x="101.5" y="399.6" width="1.4" height="1.4"/>
        </g>
        <g>
          <rect class="st1" x="96" y="405.1" width="1.4" height="1.4"/>
          <rect class="st1" x="98.8" y="405.1" width="1.4" height="1.4"/>
        </g>
        <g>
          <rect class="st1" x="93.3" y="399.6" width="1.4" height="1.4"/>
          <rect class="st1" x="93.3" y="402.4" width="1.4" height="1.4"/>
        </g>
      </g>
      <g>
        <g>
          <rect class="st1" x="216.1" y="384.6" width="1.2" height="1.2"/>
          <rect class="st1" x="218.5" y="384.6" width="1.2" height="1.2"/>
        </g>
        <g>
          <rect class="st1" x="217.3" y="387" width="1.2" height="1.2"/>
          <rect class="st1" x="217.3" y="389.4" width="1.2" height="1.2"/>
        </g>
        <g>
          <rect class="st1" x="218.5" y="384.6" width="1.2" height="1.2"/>
          <rect class="st1" x="218.5" y="382.2" width="1.2" height="1.2"/>
        </g>
        <g>
          <rect class="st1" x="221" y="383.4" width="1.2" height="1.2"/>
          <rect class="st1" x="223.4" y="383.4" width="1.2" height="1.2"/>
        </g>
        <g>
          <rect class="st1" x="218.5" y="382.2" width="1.2" height="1.2"/>
          <rect class="st1" x="216.1" y="382.2" width="1.2" height="1.2"/>
        </g>
        <g>
          <rect class="st1" x="217.3" y="379.7" width="1.2" height="1.2"/>
          <rect class="st1" x="217.3" y="377.3" width="1.2" height="1.2"/>
        </g>
        <g>
          <rect class="st1" x="216.1" y="382.2" width="1.2" height="1.2"/>
          <rect class="st1" x="216.1" y="384.6" width="1.2" height="1.2"/>
        </g>
        <g>
          <rect class="st1" x="213.7" y="383.4" width="1.2" height="1.2"/>
          <rect class="st1" x="211.3" y="383.4" width="1.2" height="1.2"/>
        </g>
      </g>
      <g>
        <g>
          <rect class="st1" x="240.3" y="392.4" width="1.2" height="1.2"/>
          <g>
            <rect class="st1" x="241.5" y="394.9" width="1.2" height="1.2"/>
            <rect class="st1" x="239.1" y="394.9" width="1.2" height="1.2"/>
            <rect class="st1" x="242.7" y="393.7" width="1.2" height="1.2"/>
            <rect class="st1" x="237.9" y="393.7" width="1.2" height="1.2"/>
          </g>
          <g>
            <rect class="st1" x="239.1" y="390" width="1.2" height="1.2"/>
            <rect class="st1" x="241.5" y="390" width="1.2" height="1.2"/>
            <rect class="st1" x="237.9" y="391.2" width="1.2" height="1.2"/>
            <rect class="st1" x="242.7" y="391.2" width="1.2" height="1.2"/>
          </g>
        </g>
        <g>
          <g>
            <rect class="st1" x="239.1" y="397.3" width="1.2" height="1.2"/>
            <rect class="st1" x="241.5" y="397.3" width="1.2" height="1.2"/>
          </g>
          <g>
            <rect class="st1" x="240.3" y="399.7" width="1.2" height="1.2"/>
            <rect class="st1" x="240.3" y="402.1" width="1.2" height="1.2"/>
          </g>
        </g>
        <g>
          <g>
            <rect class="st1" x="245.2" y="393.7" width="1.2" height="1.2"/>
            <rect class="st1" x="245.2" y="391.2" width="1.2" height="1.2"/>
          </g>
          <g>
            <rect class="st1" x="247.6" y="392.4" width="1.2" height="1.2"/>
            <rect class="st1" x="250" y="392.4" width="1.2" height="1.2"/>
          </g>
        </g>
        <g>
          <g>
            <rect class="st1" x="241.5" y="387.6" width="1.2" height="1.2"/>
            <rect class="st1" x="239.1" y="387.6" width="1.2" height="1.2"/>
          </g>
          <g>
            <rect class="st1" x="240.3" y="385.2" width="1.2" height="1.2"/>
            <rect class="st1" x="240.3" y="382.8" width="1.2" height="1.2"/>
          </g>
        </g>
        <g>
          <g>
            <rect class="st1" x="235.5" y="391.2" width="1.2" height="1.2"/>
            <rect class="st1" x="235.5" y="393.7" width="1.2" height="1.2"/>
          </g>
          <g>
            <rect class="st1" x="233" y="392.4" width="1.2" height="1.2"/>
            <rect class="st1" x="230.6" y="392.4" width="1.2" height="1.2"/>
          </g>
        </g>
      </g>
      <g>
        <g>
          <g>
            <rect class="st1" x="188.9" y="399.6" width="1.4" height="1.4"/>
            <rect class="st1" x="190.2" y="399.6" width="1.4" height="1.4"/>
            <rect class="st1" x="191.6" y="399.6" width="1.4" height="1.4"/>
            <rect class="st1" x="191.6" y="401" width="1.4" height="1.4"/>
            <rect class="st1" x="191.6" y="402.4" width="1.4" height="1.4"/>
            <rect class="st1" x="190.2" y="402.4" width="1.4" height="1.4"/>
            <rect class="st1" x="188.9" y="402.4" width="1.4" height="1.4"/>
            <rect class="st1" x="188.9" y="401" width="1.4" height="1.4"/>
          </g>
          <rect class="st1" x="188.9" y="399.6" width="1.4" height="1.4"/>
          <rect class="st1" x="191.6" y="399.6" width="1.4" height="1.4"/>
        </g>
        <g>
          <rect class="st1" x="188.9" y="396.9" width="1.4" height="1.4"/>
          <rect class="st1" x="191.6" y="396.9" width="1.4" height="1.4"/>
        </g>
        <g>
          <rect class="st1" x="186.1" y="402.4" width="1.4" height="1.4"/>
          <rect class="st1" x="186.1" y="399.6" width="1.4" height="1.4"/>
        </g>
        <g>
          <rect class="st1" x="191.6" y="405.1" width="1.4" height="1.4"/>
          <rect class="st1" x="188.9" y="405.1" width="1.4" height="1.4"/>
        </g>
        <g>
          <rect class="st1" x="194.3" y="399.6" width="1.4" height="1.4"/>
          <rect class="st1" x="194.3" y="402.4" width="1.4" height="1.4"/>
        </g>
      </g>
      <g>
        <g>
          <rect class="st1" x="29.4" y="334.1" width="1.9" height="1.9"/>
          <rect class="st1" x="31.3" y="334.1" width="1.9" height="1.9"/>
          <rect class="st1" x="33.1" y="334.1" width="1.9" height="1.9"/>
          <rect class="st1" x="33.1" y="336" width="1.9" height="1.9"/>
          <rect class="st1" x="33.1" y="337.8" width="1.9" height="1.9"/>
          <rect class="st1" x="31.3" y="337.8" width="1.9" height="1.9"/>
          <rect class="st1" x="29.4" y="337.8" width="1.9" height="1.9"/>
          <rect class="st1" x="29.4" y="336" width="1.9" height="1.9"/>
        </g>
        <g>
          <rect class="st1" x="31.3" y="326.7" width="1.9" height="1.9"/>
          <g>
            <rect class="st1" x="29.4" y="323" width="1.9" height="1.9"/>
            <rect class="st1" x="33.1" y="323" width="1.9" height="1.9"/>
            <rect class="st1" x="27.6" y="324.8" width="1.9" height="1.9"/>
            <rect class="st1" x="35" y="324.8" width="1.9" height="1.9"/>
          </g>
          <g>
            <rect class="st1" x="33.1" y="330.4" width="1.9" height="1.9"/>
            <rect class="st1" x="29.4" y="330.4" width="1.9" height="1.9"/>
            <rect class="st1" x="35" y="328.5" width="1.9" height="1.9"/>
            <rect class="st1" x="27.6" y="328.5" width="1.9" height="1.9"/>
          </g>
        </g>
        <g>
          <rect class="st1" x="22.2" y="335.8" width="1.9" height="1.9"/>
          <g>
            <rect class="st1" x="18.5" y="337.6" width="1.9" height="1.9"/>
            <rect class="st1" x="18.5" y="333.9" width="1.9" height="1.9"/>
            <rect class="st1" x="20.3" y="339.5" width="1.9" height="1.9"/>
            <rect class="st1" x="20.3" y="332.1" width="1.9" height="1.9"/>
          </g>
          <g>
            <rect class="st1" x="25.9" y="333.9" width="1.9" height="1.9"/>
            <rect class="st1" x="25.9" y="337.6" width="1.9" height="1.9"/>
            <rect class="st1" x="24" y="332.1" width="1.9" height="1.9"/>
            <rect class="st1" x="24" y="339.5" width="1.9" height="1.9"/>
          </g>
        </g>
        <g>
          <rect class="st1" x="31.3" y="344.9" width="1.9" height="1.9"/>
          <g>
            <rect class="st1" x="33.1" y="348.6" width="1.9" height="1.9"/>
            <rect class="st1" x="29.4" y="348.6" width="1.9" height="1.9"/>
            <rect class="st1" x="35" y="346.7" width="1.9" height="1.9"/>
            <rect class="st1" x="27.6" y="346.7" width="1.9" height="1.9"/>
          </g>
          <g>
            <rect class="st1" x="29.4" y="341.2" width="1.9" height="1.9"/>
            <rect class="st1" x="33.1" y="341.2" width="1.9" height="1.9"/>
            <rect class="st1" x="27.6" y="343" width="1.9" height="1.9"/>
            <rect class="st1" x="35" y="343" width="1.9" height="1.9"/>
          </g>
        </g>
        <g>
          <rect class="st1" x="40.4" y="335.8" width="1.9" height="1.9"/>
          <g>
            <rect class="st1" x="44.1" y="333.9" width="1.9" height="1.9"/>
            <rect class="st1" x="44.1" y="337.6" width="1.9" height="1.9"/>
            <rect class="st1" x="42.2" y="332.1" width="1.9" height="1.9"/>
            <rect class="st1" x="42.2" y="339.5" width="1.9" height="1.9"/>
          </g>
          <g>
            <rect class="st1" x="36.7" y="337.6" width="1.9" height="1.9"/>
            <rect class="st1" x="36.7" y="333.9" width="1.9" height="1.9"/>
            <rect class="st1" x="38.5" y="339.5" width="1.9" height="1.9"/>
            <rect class="st1" x="38.5" y="332.1" width="1.9" height="1.9"/>
          </g>
        </g>
      </g>
      <g>
        <g>
          <g>
            <rect class="st1" x="54.7" y="316.4" width="1.5" height="1.5"/>
            <rect class="st1" x="56.1" y="316.4" width="1.5" height="1.5"/>
            <rect class="st1" x="57.6" y="316.4" width="1.5" height="1.5"/>
            <rect class="st1" x="57.6" y="317.9" width="1.5" height="1.5"/>
            <rect class="st1" x="57.6" y="319.4" width="1.5" height="1.5"/>
            <rect class="st1" x="56.1" y="319.4" width="1.5" height="1.5"/>
            <rect class="st1" x="54.7" y="319.4" width="1.5" height="1.5"/>
            <rect class="st1" x="54.7" y="317.9" width="1.5" height="1.5"/>
          </g>
          <rect class="st1" x="54.7" y="316.4" width="1.5" height="1.5"/>
          <rect class="st1" x="57.6" y="316.4" width="1.5" height="1.5"/>
        </g>
        <g>
          <rect class="st1" x="54.7" y="313.5" width="1.5" height="1.5"/>
          <rect class="st1" x="57.6" y="313.5" width="1.5" height="1.5"/>
        </g>
        <g>
          <rect class="st1" x="51.8" y="319.4" width="1.5" height="1.5"/>
          <rect class="st1" x="51.8" y="316.4" width="1.5" height="1.5"/>
        </g>
        <g>
          <rect class="st1" x="57.6" y="322.3" width="1.5" height="1.5"/>
          <rect class="st1" x="54.7" y="322.3" width="1.5" height="1.5"/>
        </g>
        <g>
          <rect class="st1" x="60.5" y="316.4" width="1.5" height="1.5"/>
          <rect class="st1" x="60.5" y="319.4" width="1.5" height="1.5"/>
        </g>
      </g>
      <g>
        <g>
          <rect class="st1" x="256.8" y="334.1" width="1.9" height="1.9"/>
          <rect class="st1" x="254.9" y="334.1" width="1.9" height="1.9"/>
          <rect class="st1" x="253.1" y="334.1" width="1.9" height="1.9"/>
          <rect class="st1" x="253.1" y="336" width="1.9" height="1.9"/>
          <rect class="st1" x="253.1" y="337.8" width="1.9" height="1.9"/>
          <rect class="st1" x="254.9" y="337.8" width="1.9" height="1.9"/>
          <rect class="st1" x="256.8" y="337.8" width="1.9" height="1.9"/>
          <rect class="st1" x="256.8" y="336" width="1.9" height="1.9"/>
        </g>
        <g>
          <rect class="st1" x="254.9" y="326.7" width="1.9" height="1.9"/>
          <g>
            <rect class="st1" x="256.8" y="323" width="1.9" height="1.9"/>
            <rect class="st1" x="253.1" y="323" width="1.9" height="1.9"/>
            <rect class="st1" x="258.6" y="324.8" width="1.9" height="1.9"/>
            <rect class="st1" x="251.2" y="324.8" width="1.9" height="1.9"/>
          </g>
          <g>
            <rect class="st1" x="253.1" y="330.4" width="1.9" height="1.9"/>
            <rect class="st1" x="256.8" y="330.4" width="1.9" height="1.9"/>
            <rect class="st1" x="251.2" y="328.5" width="1.9" height="1.9"/>
            <rect class="st1" x="258.6" y="328.5" width="1.9" height="1.9"/>
          </g>
        </g>
        <g>
          <rect class="st1" x="264" y="335.8" width="1.9" height="1.9"/>
          <g>
            <rect class="st1" x="267.7" y="337.6" width="1.9" height="1.9"/>
            <rect class="st1" x="267.7" y="333.9" width="1.9" height="1.9"/>
            <rect class="st1" x="265.9" y="339.5" width="1.9" height="1.9"/>
            <rect class="st1" x="265.9" y="332.1" width="1.9" height="1.9"/>
          </g>
          <g>
            <rect class="st1" x="260.3" y="333.9" width="1.9" height="1.9"/>
            <rect class="st1" x="260.3" y="337.6" width="1.9" height="1.9"/>
            <rect class="st1" x="262.1" y="332.1" width="1.9" height="1.9"/>
            <rect class="st1" x="262.1" y="339.5" width="1.9" height="1.9"/>
          </g>
        </g>
        <g>
          <rect class="st1" x="254.9" y="344.9" width="1.9" height="1.9"/>
          <g>
            <rect class="st1" x="253.1" y="348.6" width="1.9" height="1.9"/>
            <rect class="st1" x="256.8" y="348.6" width="1.9" height="1.9"/>
            <rect class="st1" x="251.2" y="346.7" width="1.9" height="1.9"/>
            <rect class="st1" x="258.6" y="346.7" width="1.9" height="1.9"/>
          </g>
          <g>
            <rect class="st1" x="256.8" y="341.2" width="1.9" height="1.9"/>
            <rect class="st1" x="253.1" y="341.2" width="1.9" height="1.9"/>
            <rect class="st1" x="258.6" y="343" width="1.9" height="1.9"/>
            <rect class="st1" x="251.2" y="343" width="1.9" height="1.9"/>
          </g>
        </g>
        <g>
          <rect class="st1" x="245.8" y="335.8" width="1.9" height="1.9"/>
          <g>
            <rect class="st1" x="242.1" y="333.9" width="1.9" height="1.9"/>
            <rect class="st1" x="242.1" y="337.6" width="1.9" height="1.9"/>
            <rect class="st1" x="244" y="332.1" width="1.9" height="1.9"/>
            <rect class="st1" x="244" y="339.5" width="1.9" height="1.9"/>
          </g>
          <g>
            <rect class="st1" x="249.5" y="337.6" width="1.9" height="1.9"/>
            <rect class="st1" x="249.5" y="333.9" width="1.9" height="1.9"/>
            <rect class="st1" x="247.7" y="339.5" width="1.9" height="1.9"/>
            <rect class="st1" x="247.7" y="332.1" width="1.9" height="1.9"/>
          </g>
        </g>
      </g>
      <g>
        <g>
          <rect class="st1" x="144.7" y="329.3" width="1.4" height="1.4"/>
          <rect class="st1" x="143.3" y="329.3" width="1.4" height="1.4"/>
          <rect class="st1" x="142" y="329.3" width="1.4" height="1.4"/>
          <rect class="st1" x="142" y="330.7" width="1.4" height="1.4"/>
          <rect class="st1" x="142" y="332.1" width="1.4" height="1.4"/>
          <rect class="st1" x="143.3" y="332.1" width="1.4" height="1.4"/>
          <rect class="st1" x="144.7" y="332.1" width="1.4" height="1.4"/>
          <rect class="st1" x="144.7" y="330.7" width="1.4" height="1.4"/>
        </g>
        <g>
          <rect class="st1" x="143.3" y="323.9" width="1.4" height="1.4"/>
          <g>
            <rect class="st1" x="144.7" y="321.1" width="1.4" height="1.4"/>
            <rect class="st1" x="142" y="321.1" width="1.4" height="1.4"/>
            <rect class="st1" x="146.1" y="322.5" width="1.4" height="1.4"/>
            <rect class="st1" x="140.6" y="322.5" width="1.4" height="1.4"/>
          </g>
          <g>
            <rect class="st1" x="142" y="326.6" width="1.4" height="1.4"/>
            <rect class="st1" x="144.7" y="326.6" width="1.4" height="1.4"/>
            <rect class="st1" x="140.6" y="325.2" width="1.4" height="1.4"/>
            <rect class="st1" x="146.1" y="325.2" width="1.4" height="1.4"/>
          </g>
        </g>
        <g>
          <rect class="st1" x="150" y="330.6" width="1.4" height="1.4"/>
          <g>
            <rect class="st1" x="152.8" y="331.9" width="1.4" height="1.4"/>
            <rect class="st1" x="152.8" y="329.2" width="1.4" height="1.4"/>
            <rect class="st1" x="151.4" y="333.3" width="1.4" height="1.4"/>
            <rect class="st1" x="151.4" y="327.8" width="1.4" height="1.4"/>
          </g>
          <g>
            <rect class="st1" x="147.3" y="329.2" width="1.4" height="1.4"/>
            <rect class="st1" x="147.3" y="331.9" width="1.4" height="1.4"/>
            <rect class="st1" x="148.7" y="327.8" width="1.4" height="1.4"/>
            <rect class="st1" x="148.7" y="333.3" width="1.4" height="1.4"/>
          </g>
        </g>
        <g>
          <rect class="st1" x="143.3" y="337.3" width="1.4" height="1.4"/>
          <g>
            <rect class="st1" x="142" y="340" width="1.4" height="1.4"/>
            <rect class="st1" x="144.7" y="340" width="1.4" height="1.4"/>
            <rect class="st1" x="140.6" y="338.6" width="1.4" height="1.4"/>
            <rect class="st1" x="146.1" y="338.6" width="1.4" height="1.4"/>
          </g>
          <g>
            <rect class="st1" x="144.7" y="334.5" width="1.4" height="1.4"/>
            <rect class="st1" x="142" y="334.5" width="1.4" height="1.4"/>
            <rect class="st1" x="146.1" y="335.9" width="1.4" height="1.4"/>
            <rect class="st1" x="140.6" y="335.9" width="1.4" height="1.4"/>
          </g>
        </g>
        <g>
          <rect class="st1" x="136.6" y="330.6" width="1.4" height="1.4"/>
          <g>
            <rect class="st1" x="133.9" y="329.2" width="1.4" height="1.4"/>
            <rect class="st1" x="133.9" y="331.9" width="1.4" height="1.4"/>
            <rect class="st1" x="135.3" y="327.8" width="1.4" height="1.4"/>
            <rect class="st1" x="135.3" y="333.3" width="1.4" height="1.4"/>
          </g>
          <g>
            <rect class="st1" x="139.4" y="331.9" width="1.4" height="1.4"/>
            <rect class="st1" x="139.4" y="329.2" width="1.4" height="1.4"/>
            <rect class="st1" x="138" y="333.3" width="1.4" height="1.4"/>
            <rect class="st1" x="138" y="327.8" width="1.4" height="1.4"/>
          </g>
        </g>
      </g>
      <g>
        <g>
          <g>
            <rect class="st1" x="231.9" y="316.4" width="1.5" height="1.5"/>
            <rect class="st1" x="230.4" y="316.4" width="1.5" height="1.5"/>
            <rect class="st1" x="229" y="316.4" width="1.5" height="1.5"/>
            <rect class="st1" x="229" y="317.9" width="1.5" height="1.5"/>
            <rect class="st1" x="229" y="319.4" width="1.5" height="1.5"/>
            <rect class="st1" x="230.4" y="319.4" width="1.5" height="1.5"/>
            <rect class="st1" x="231.9" y="319.4" width="1.5" height="1.5"/>
            <rect class="st1" x="231.9" y="317.9" width="1.5" height="1.5"/>
          </g>
          <rect class="st1" x="231.9" y="316.4" width="1.5" height="1.5"/>
          <rect class="st1" x="229" y="316.4" width="1.5" height="1.5"/>
        </g>
        <g>
          <rect class="st1" x="231.9" y="313.5" width="1.5" height="1.5"/>
          <rect class="st1" x="229" y="313.5" width="1.5" height="1.5"/>
        </g>
        <g>
          <rect class="st1" x="234.8" y="319.4" width="1.5" height="1.5"/>
          <rect class="st1" x="234.8" y="316.4" width="1.5" height="1.5"/>
        </g>
        <g>
          <rect class="st1" x="229" y="322.3" width="1.5" height="1.5"/>
          <rect class="st1" x="231.9" y="322.3" width="1.5" height="1.5"/>
        </g>
        <g>
          <rect class="st1" x="226.1" y="316.4" width="1.5" height="1.5"/>
          <rect class="st1" x="226.1" y="319.4" width="1.5" height="1.5"/>
        </g>
      </g>
      <g>
        <g>
          <rect class="st1" x="96" y="341" width="1.3" height="1.3"/>
          <rect class="st1" x="97.3" y="341" width="1.3" height="1.3"/>
          <rect class="st1" x="98.6" y="341" width="1.3" height="1.3"/>
          <rect class="st1" x="98.6" y="342.3" width="1.3" height="1.3"/>
          <rect class="st1" x="98.6" y="343.5" width="1.3" height="1.3"/>
          <rect class="st1" x="97.3" y="343.5" width="1.3" height="1.3"/>
          <rect class="st1" x="96" y="343.5" width="1.3" height="1.3"/>
          <rect class="st1" x="96" y="342.3" width="1.3" height="1.3"/>
        </g>
        <g>
          <rect class="st1" x="102.2" y="337.3" width="1.3" height="1.3"/>
          <rect class="st1" x="102.2" y="336.1" width="1.3" height="1.3"/>
          <rect class="st1" x="102.2" y="334.8" width="1.3" height="1.3"/>
          <rect class="st1" x="103.5" y="334.8" width="1.3" height="1.3"/>
          <rect class="st1" x="104.8" y="334.8" width="1.3" height="1.3"/>
          <rect class="st1" x="104.8" y="336.1" width="1.3" height="1.3"/>
          <rect class="st1" x="104.8" y="337.3" width="1.3" height="1.3"/>
          <rect class="st1" x="103.5" y="337.3" width="1.3" height="1.3"/>
        </g>
        <g>
          <rect class="st1" x="98.6" y="331.1" width="1.3" height="1.3"/>
          <rect class="st1" x="97.3" y="331.1" width="1.3" height="1.3"/>
          <rect class="st1" x="96" y="331.1" width="1.3" height="1.3"/>
          <rect class="st1" x="96" y="329.9" width="1.3" height="1.3"/>
          <rect class="st1" x="96" y="328.6" width="1.3" height="1.3"/>
          <rect class="st1" x="97.3" y="328.6" width="1.3" height="1.3"/>
          <rect class="st1" x="98.6" y="328.6" width="1.3" height="1.3"/>
          <rect class="st1" x="98.6" y="329.9" width="1.3" height="1.3"/>
        </g>
        <g>
          <rect class="st1" x="92.4" y="334.8" width="1.3" height="1.3"/>
          <rect class="st1" x="92.4" y="336.1" width="1.3" height="1.3"/>
          <rect class="st1" x="92.4" y="337.3" width="1.3" height="1.3"/>
          <rect class="st1" x="91.1" y="337.3" width="1.3" height="1.3"/>
          <rect class="st1" x="89.8" y="337.3" width="1.3" height="1.3"/>
          <rect class="st1" x="89.8" y="336.1" width="1.3" height="1.3"/>
          <rect class="st1" x="89.8" y="334.8" width="1.3" height="1.3"/>
          <rect class="st1" x="91.1" y="334.8" width="1.3" height="1.3"/>
        </g>
        <g>
          <rect class="st1" x="97.3" y="336.1" width="1.3" height="1.3"/>
          <g>
            <rect class="st1" x="96" y="333.5" width="1.3" height="1.3"/>
            <rect class="st1" x="98.6" y="333.5" width="1.3" height="1.3"/>
            <rect class="st1" x="94.7" y="334.8" width="1.3" height="1.3"/>
            <rect class="st1" x="99.8" y="334.8" width="1.3" height="1.3"/>
          </g>
          <g>
            <rect class="st1" x="98.6" y="338.6" width="1.3" height="1.3"/>
            <rect class="st1" x="96" y="338.6" width="1.3" height="1.3"/>
            <rect class="st1" x="99.8" y="337.3" width="1.3" height="1.3"/>
            <rect class="st1" x="94.7" y="337.3" width="1.3" height="1.3"/>
          </g>
        </g>
      </g>
      <g>
        <g>
          <rect class="st1" x="190.8" y="341" width="1.3" height="1.3"/>
          <rect class="st1" x="189.6" y="341" width="1.3" height="1.3"/>
          <rect class="st1" x="188.3" y="341" width="1.3" height="1.3"/>
          <rect class="st1" x="188.3" y="342.3" width="1.3" height="1.3"/>
          <rect class="st1" x="188.3" y="343.6" width="1.3" height="1.3"/>
          <rect class="st1" x="189.6" y="343.6" width="1.3" height="1.3"/>
          <rect class="st1" x="190.8" y="343.6" width="1.3" height="1.3"/>
          <rect class="st1" x="190.8" y="342.3" width="1.3" height="1.3"/>
        </g>
        <g>
          <rect class="st1" x="184.6" y="337.4" width="1.3" height="1.3"/>
          <rect class="st1" x="184.6" y="336.1" width="1.3" height="1.3"/>
          <rect class="st1" x="184.6" y="334.8" width="1.3" height="1.3"/>
          <rect class="st1" x="183.4" y="334.8" width="1.3" height="1.3"/>
          <rect class="st1" x="182.1" y="334.8" width="1.3" height="1.3"/>
          <rect class="st1" x="182.1" y="336.1" width="1.3" height="1.3"/>
          <rect class="st1" x="182.1" y="337.4" width="1.3" height="1.3"/>
          <rect class="st1" x="183.4" y="337.4" width="1.3" height="1.3"/>
        </g>
        <g>
          <rect class="st1" x="188.3" y="331.2" width="1.3" height="1.3"/>
          <rect class="st1" x="189.6" y="331.2" width="1.3" height="1.3"/>
          <rect class="st1" x="190.8" y="331.2" width="1.3" height="1.3"/>
          <rect class="st1" x="190.8" y="329.9" width="1.3" height="1.3"/>
          <rect class="st1" x="190.8" y="328.6" width="1.3" height="1.3"/>
          <rect class="st1" x="189.6" y="328.6" width="1.3" height="1.3"/>
          <rect class="st1" x="188.3" y="328.6" width="1.3" height="1.3"/>
          <rect class="st1" x="188.3" y="329.9" width="1.3" height="1.3"/>
        </g>
        <g>
          <rect class="st1" x="194.5" y="334.8" width="1.3" height="1.3"/>
          <rect class="st1" x="194.5" y="336.1" width="1.3" height="1.3"/>
          <rect class="st1" x="194.5" y="337.4" width="1.3" height="1.3"/>
          <rect class="st1" x="195.8" y="337.4" width="1.3" height="1.3"/>
          <rect class="st1" x="197" y="337.4" width="1.3" height="1.3"/>
          <rect class="st1" x="197" y="336.1" width="1.3" height="1.3"/>
          <rect class="st1" x="197" y="334.8" width="1.3" height="1.3"/>
          <rect class="st1" x="195.8" y="334.8" width="1.3" height="1.3"/>
        </g>
        <g>
          <rect class="st1" x="189.6" y="336.1" width="1.3" height="1.3"/>
          <g>
            <rect class="st1" x="190.8" y="333.5" width="1.3" height="1.3"/>
            <rect class="st1" x="188.3" y="333.5" width="1.3" height="1.3"/>
            <rect class="st1" x="192.1" y="334.8" width="1.3" height="1.3"/>
            <rect class="st1" x="187" y="334.8" width="1.3" height="1.3"/>
          </g>
          <g>
            <rect class="st1" x="188.3" y="338.6" width="1.3" height="1.3"/>
            <rect class="st1" x="190.8" y="338.6" width="1.3" height="1.3"/>
            <rect class="st1" x="187" y="337.4" width="1.3" height="1.3"/>
            <rect class="st1" x="192.1" y="337.4" width="1.3" height="1.3"/>
          </g>
        </g>
      </g>
    </g>
  </g>
  <g>
    <path class="st1" d="M119.1,391.6h1.3l1.1,2.7h0l1.1-2.7h1.3v4.4h-1v-2.7h0l-1.1,2.7h-.7l-1.1-2.7h0v2.7h-1v-4.4h0Z"/>
    <path class="st1" d="M127.4,391.6h1.1v2.8c0,.6-.3,1.2-.9,1.4-.6.3-1.3.3-2,0-.3,0-.5-.3-.7-.6s-.2-.6-.2-.9v-2.8h1.1v2.8c0,0,0,.3,0,.4,0,0,.2.2.3.3.3,0,.6,0,.8,0,0,0,.2-.2.3-.3,0,0,0-.3,0-.4v-2.8h0Z"/>
    <path class="st1" d="M131.5,392.9c0,0,0-.3-.2-.4-.1,0-.3,0-.5,0h-.3s-.2,0-.2,0v.4h.1c0,0,.1,0,.2.2h.7c.2,0,.4.2.6.3.2,0,.3.2.4.3.1,0,.2.2.3.4v.5c0,.3,0,.5-.2.7s-.4.4-.6.5c-.3,0-.6.2-.9.2s-.7,0-1-.2c-.3,0-.5-.3-.6-.5-.2-.2-.2-.5-.2-.9h1c0,0,0,.2.1.4,0,0,.2.2.3.2h.8s.2,0,.2-.2v-.4s-.1,0-.2-.2c-.1,0-.3,0-.4,0h-.5c-.4-.2-.7-.3-.9-.5s-.3-.5-.3-.8,0-.5.2-.7.4-.4.6-.5c.3,0,.6-.2.9-.2s.6,0,.9.2c.2,0,.4.3.6.5.1.2.2.5.2.7h-1.1Z"/>
    <path class="st1" d="M133.1,396v-4.4h3.1v.9h-2v.9h1.9v.9h-1.9v.9h2v.9h-3.1Z"/>
    <path class="st1" d="M139.6,391.6h1.1v2.8c0,.6-.3,1.2-.9,1.4-.6.3-1.3.3-2,0-.3,0-.5-.3-.7-.6s-.2-.6-.2-.9v-2.8h1.1v2.8c0,0,0,.3.1.4,0,0,.2.2.3.3.3,0,.6,0,.8,0,.1,0,.2-.2.3-.3,0,0,.1-.3.1-.4v-2.8h0Z"/>
    <path class="st1" d="M141.3,391.6h1.3l1.1,2.7h0l1.1-2.7h1.3v4.4h-1v-2.7h0l-1.1,2.7h-.7l-1.1-2.7h0v2.7h-1v-4.4h0Z"/>
    <path class="st1" d="M152.2,393.2h-1.1v-.3s-.1-.2-.2-.2c0,0-.2,0-.3,0h-.3c-.2,0-.4,0-.6.2-.2,0-.3.3-.4.5-.2.5-.2,1,0,1.5.1.4.5.6.9.6h.3s.2,0,.3,0c0,0,.1,0,.2-.2,0,0,0-.2.1-.3h1.1c0,.2,0,.4-.2.6,0,.2-.2.4-.4.5-.2.2-.4.3-.6.4-.3,0-.5,0-.8,0s-.7,0-1.1-.3c-.3-.2-.6-.4-.7-.8-.2-.3-.3-.7-.3-1.2s0-.9.3-1.2c.2-.3.4-.6.8-.8.3-.2.7-.3,1.1-.3s.5,0,.7,0c.2,0,.4.2.6.3.2,0,.3.3.4.5.1.2.2.5.2.7v-.2Z"/>
    <path class="st1" d="M153.5,394.3v.8h2.4v-.8h-2.4ZM155.4,391.6h-1.4l-1.5,4.4h1.1l.3-.9.3-.8.5-1.6h0l.5,1.6.3.8.3.9h1.1l-1.5-4.4h0Z"/>
    <path class="st1" d="M156.7,392.5v-.9h3.7v.9h-1.3v3.5h-1.1v-3.5h-1.3,0Z"/>
    <path class="st1" d="M163.6,391.6h1.1v2.8c0,.6-.3,1.2-.9,1.4-.6.3-1.3.3-2,0-.3,0-.5-.3-.7-.6s-.2-.6-.2-.9v-2.8h1.1v2.8c0,0,0,.3.1.4,0,0,.2.2.3.3.3,0,.6,0,.8,0,.1,0,.2-.2.3-.3,0,0,.1-.3.1-.4v-2.8h0Z"/>
    <path class="st1" d="M168,394.3l-.2-.3h-1.1l.3.5.8,1.5h1.2l-.9-1.7h-.1ZM168.6,392.3c-.1-.2-.3-.4-.6-.5s-.6-.2-.9-.2h-1.8v4.4h1.1v-1.5h.7c.3,0,.6,0,.9-.2h0c.2,0,.4-.3.6-.5.1-.2.2-.5.2-.8s0-.5-.2-.8h0ZM166.4,392.4h.9s.2,0,.2.2v.6s-.1.2-.2.2h-.9v-1.2.2Z"/>
    <path class="st1" d="M128.3,397.2v4.4h-1.1v-4.4h1.1Z"/>
    <path class="st1" d="M132.7,397.2v4.4h-.9l-1.8-2.5h0v2.5h-1.1v-4.4h.9l1.7,2.5h0v-2.5h1.2Z"/>
    <path class="st1" d="M137,398.2c-.2-.3-.4-.6-.8-.8-.3-.2-.7-.3-1.2-.3h-1.6v4.4h1.6c.4,0,.8,0,1.2-.3.3-.2.6-.4.8-.8.2-.3.3-.7.3-1.2s0-.9-.3-1.2v.2ZM136,400.1c0,.2-.2.3-.4.4-.2,0-.4,0-.6,0h-.5v-2.6h.5c.2,0,.4,0,.6,0,.2,0,.3.2.4.4,0,.2.1.4.1.8s0,.6-.1.8Z"/>
    <path class="st1" d="M141.7,398.1c-.2-.3-.4-.6-.8-.8-.7-.4-1.5-.4-2.1,0s-.6.4-.8.8c-.2.3-.3.8-.3,1.2s0,.9.3,1.2c.2.3.4.6.8.8.3.2.7.3,1.1.3s.7,0,1.1-.3c.3-.2.6-.4.8-.8.2-.3.3-.8.3-1.2s0-.9-.3-1.2h-.1ZM140.8,400.1c0,.3-.3.5-.6.6-.5.2-1.1,0-1.2-.6-.2-.5-.2-1,0-1.5,0,0,0,0,.1-.2.3-.4.9-.5,1.3-.2.2,0,.3.3.4.4,0,.2.1.5.1.7s0,.5-.1.7h0Z"/>
    <path class="st1" d="M146.4,397.2v4.4h-.9l-1.8-2.5h0v2.5h-1.1v-4.4h.9l1.7,2.5h0v-2.5h1.2Z"/>
    <path class="st1" d="M147.1,401.6v-4.4h3.1v.9h-2v.9h1.9v.9h-1.9v.9h2v.9h-3.1Z"/>
    <path class="st1" d="M153.2,398.5c0,0,0-.3-.2-.4-.1,0-.3,0-.5,0h-.3s-.2,0-.2,0v.4h.1c0,0,.1,0,.2.2h.7c.2,0,.4.2.6.3.2,0,.3.2.4.3.1,0,.2.2.3.4v.5c0,.3,0,.5-.2.7s-.4.4-.6.5c-.3,0-.6.2-.9.2s-.7,0-1-.2c-.3,0-.5-.3-.6-.5-.2-.2-.2-.5-.2-.9h1c0,0,0,.2.1.4,0,0,.2.2.3.2h.8s.2,0,.2-.2v-.4s-.1,0-.2-.2c-.1,0-.3,0-.4,0h-.5c-.4-.2-.7-.3-.9-.5s-.3-.5-.3-.8,0-.5.2-.7.4-.4.6-.5c.3,0,.6-.2.9-.2s.6,0,.9.2c.2,0,.4.3.6.5.1.2.2.5.2.7h-1.1Z"/>
    <path class="st1" d="M155.9,397.2v4.4h-1.1v-4.4h1.1Z"/>
    <path class="st1" d="M157.4,399.8v.8h2.4v-.8h-2.4ZM159.3,397.2h-1.4l-1.5,4.4h1.1l.3-.9.3-.8.5-1.6h0l.5,1.6.3.8.3.9h1.1l-1.5-4.4h0Z"/>
    <path class="st1" d="M150.6,376.4h0c.4-.4.4-.8.4-1.3h0c0-.4,0-.8-.2-1.1-.3-.4-.8-.4-1.3-.4h-11.4c-1.4,0-1,0-1.3.4-.2.3-.2.6-.2,1.1h0c0,.5,0,.9.4,1.3h0c.9.9,1.6,1.5,2,1.9h-1.2c-.5,0-.9.4-.9.9v3.1c0,.5.4.8.9.8h1.2c-.4.4-1,1-2,1.9h0c-.4.4-.4.8-.4,1.3h0c0,.4,0,.8.2,1.1.3.4.8.4,1.3.4h11.4c.5,0,1,0,1.3-.4.2-.3.2-.6.2-1h0c0-.5,0-.9-.4-1.3h0c-1-.9-1.6-1.5-2-1.9h1.2c.5,0,.9-.4.9-.9v-3.1c0-.5-.4-.8-.9-.8h-1.2c.4-.4,1-1,2-1.9h0ZM149.9,380.8v1.6h-1.6c-.3,0-.5.2-.6.4,0,.2,0,.5.1.6h0c.4.4,1,1,2.3,2.2h0c0,0,.2.2.2.7h0v.6s-.1,0-.6,0h-5.7v-6.4h-6v-1.6h1.6c.3,0,.5-.2.6-.4,0-.2,0-.5-.1-.6-.4-.4-1-1-2.3-2.2h0c0,0-.2-.2-.2-.7h0v-.6s.1,0,.6,0h5.7v6.4h6Z"/>
  </g>
</svg>