<svg width="303" height="97" viewBox="0 0 303 97" fill="none" xmlns="http://www.w3.org/2000/svg">
<rect y="0.65625" width="302.645" height="95.5721" rx="6.37147" fill="#E7D0AB"/>
<path d="M45.1406 24.8008V35.8869H56.2101V24.8008H45.1406ZM52.6142 32.2856H48.72V28.3855H52.6142V32.2856Z" fill="#B24426"/>
<path d="M45.1406 60.9961V72.0823H56.2101V60.9961H45.1406ZM52.6142 68.4809H48.72V64.5808H52.6142V68.4809Z" fill="#B24426"/>
<path d="M74.2883 42.8906H63.2188V53.9768H74.2883V42.8906ZM66.7981 50.3754V46.4754H70.6923V50.3754H66.7981Z" fill="#B24426"/>
<path d="M38.1477 42.8906H27.0781V53.9768H38.1477V42.8906ZM30.6575 50.3754V46.4754H34.5517V50.3754H30.6575Z" fill="#B24426"/>
<path d="M52.6172 50.404V46.5039H48.723V50.404H52.6172Z" fill="#EB8C23"/>
<path d="M48.8945 42.7712V38.8711H45.0003V42.7712H48.8945Z" fill="#EB8C23"/>
<path d="M56.3672 42.7516V38.8516H52.473V42.7516H56.3672Z" fill="#EB8C23"/>
<path d="M48.8945 58.0368V54.1367H45.0003V58.0368H48.8945Z" fill="#EB8C23"/>
<path d="M56.3672 58.0368V54.1367H52.473V58.0368H56.3672Z" fill="#EB8C23"/>
<path d="M56.3636 46.6484H60.2578V42.7484H56.3636V46.6484Z" fill="#EB8C23"/>
<path d="M56.3636 54.1367H60.2578V50.2366H56.3636V54.1367Z" fill="#EB8C23"/>
<path d="M41.1058 46.6484H45V42.7484H41.1058V46.6484Z" fill="#EB8C23"/>
<path d="M41.1058 54.1367H45V50.2366H41.1058V54.1367Z" fill="#EB8C23"/>
<path d="M117.452 44.9497C117.452 45.9627 117.213 46.9184 116.735 47.8168C116.257 48.7152 115.493 49.4511 114.441 50.0245C113.39 50.5789 112.043 50.856 110.399 50.856L106.786 50.856L106.786 58.9414L103.518 58.9414L103.518 39.0146L110.399 39.0146C111.928 39.0146 113.218 39.2822 114.269 39.8174C115.34 40.3335 116.133 41.0408 116.649 41.9391C117.184 42.8375 117.452 43.841 117.452 44.9497ZM110.399 48.1895C111.641 48.1895 112.568 47.9124 113.18 47.3581C113.792 46.7846 114.097 45.9818 114.097 44.9497C114.097 42.7706 112.865 41.6811 110.399 41.6811L106.786 41.6811L106.786 48.1895L110.399 48.1895ZM122.232 41.0503C121.64 41.0503 121.143 40.8496 120.741 40.4482C120.34 40.0468 120.139 39.5498 120.139 38.9573C120.139 38.3647 120.34 37.8678 120.741 37.4664C121.143 37.065 121.64 36.8643 122.232 36.8643C122.806 36.8643 123.293 37.065 123.695 37.4664C124.096 37.8678 124.297 38.3647 124.297 38.9573C124.297 39.5498 124.096 40.0468 123.695 40.4482C123.293 40.8496 122.806 41.0503 122.232 41.0503ZM123.838 43.1433L123.838 58.9414L120.569 58.9414L120.569 43.1433L123.838 43.1433ZM131.398 37.7244L131.398 58.9414L128.129 58.9414L128.129 37.7244L131.398 37.7244ZM137.352 41.0503C136.76 41.0503 136.263 40.8496 135.861 40.4482C135.46 40.0468 135.259 39.5498 135.259 38.9573C135.259 38.3647 135.46 37.8678 135.861 37.4664C136.263 37.065 136.76 36.8643 137.352 36.8643C137.926 36.8643 138.413 37.065 138.814 37.4664C139.216 37.8678 139.416 38.3647 139.416 38.9573C139.416 39.5498 139.216 40.0468 138.814 40.4482C138.413 40.8496 137.926 41.0503 137.352 41.0503ZM138.958 43.1433L138.958 58.9414L135.689 58.9414L135.689 43.1433L138.958 43.1433ZM151.42 42.8853C152.625 42.8853 153.695 43.1433 154.632 43.6594C155.587 44.1755 156.333 44.9401 156.868 45.9532C157.422 46.9662 157.7 48.1895 157.7 49.6231L157.7 58.9414L154.46 58.9414L154.46 50.1105C154.46 48.6961 154.106 47.6161 153.399 46.8707C152.692 46.1061 151.726 45.7238 150.503 45.7238C149.28 45.7238 148.305 46.1061 147.578 46.8707C146.871 47.6161 146.518 48.6961 146.518 50.1105L146.518 58.9414L143.249 58.9414L143.249 37.7244L146.518 37.7244L146.518 44.9783C147.072 44.3093 147.77 43.7932 148.611 43.4301C149.471 43.0669 150.407 42.8853 151.42 42.8853ZM183.251 44.9497C183.251 45.9627 183.012 46.9184 182.534 47.8168C182.056 48.7152 181.292 49.4511 180.241 50.0245C179.189 50.5789 177.842 50.856 176.198 50.856L172.585 50.856L172.585 58.9414L169.317 58.9414L169.317 39.0146L176.198 39.0146C177.727 39.0146 179.017 39.2822 180.069 39.8174C181.139 40.3335 181.932 41.0408 182.448 41.9391C182.983 42.8375 183.251 43.841 183.251 44.9497ZM176.198 48.1895C177.44 48.1895 178.367 47.9124 178.979 47.3581C179.591 46.7846 179.897 45.9818 179.897 44.9497C179.897 42.7706 178.664 41.6811 176.198 41.6811L172.585 41.6811L172.585 48.1895L176.198 48.1895ZM193.221 59.1995C191.73 59.1995 190.382 58.8649 189.178 58.1959C187.974 57.5078 187.028 56.5521 186.34 55.3288C185.652 54.0863 185.308 52.6528 185.308 51.028C185.308 49.4224 185.661 47.9984 186.368 46.756C187.076 45.5135 188.041 44.5578 189.264 43.8888C190.488 43.2198 191.854 42.8853 193.364 42.8853C194.874 42.8853 196.241 43.2198 197.464 43.8888C198.688 44.5578 199.653 45.5135 200.36 46.756C201.067 47.9984 201.421 49.4224 201.421 51.028C201.421 52.6336 201.058 54.0577 200.332 55.3001C199.605 56.5425 198.611 57.5078 197.35 58.1959C196.107 58.8649 194.731 59.1995 193.221 59.1995ZM193.221 56.361C194.062 56.361 194.846 56.1603 195.572 55.7589C196.318 55.3575 196.92 54.7553 197.378 53.9525C197.837 53.1497 198.066 52.1749 198.066 51.028C198.066 49.8812 197.847 48.9159 197.407 48.1322C196.967 47.3294 196.384 46.7273 195.658 46.3259C194.932 45.9245 194.148 45.7238 193.307 45.7238C192.466 45.7238 191.682 45.9245 190.956 46.3259C190.249 46.7273 189.685 47.3294 189.264 48.1322C188.844 48.9159 188.634 49.8812 188.634 51.028C188.634 52.7292 189.064 54.0481 189.924 54.9847C190.803 55.9022 191.902 56.361 193.221 56.361ZM210.387 59.1995C209.144 59.1995 208.026 58.9796 207.032 58.54C206.057 58.0813 205.283 57.4696 204.71 56.705C204.136 55.9213 203.83 55.0516 203.792 54.0959L207.175 54.0959C207.233 54.7649 207.548 55.3288 208.121 55.7875C208.714 56.2272 209.45 56.447 210.329 56.447C211.247 56.447 211.954 56.2749 212.451 55.9309C212.967 55.5677 213.225 55.109 213.225 54.5546C213.225 53.9621 212.938 53.5225 212.365 53.2358C211.811 52.949 210.922 52.6336 209.698 52.2896C208.513 51.9646 207.548 51.6493 206.803 51.3434C206.057 51.0376 205.407 50.5693 204.853 49.9385C204.318 49.3077 204.05 48.4763 204.05 47.4441C204.05 46.6031 204.299 45.8385 204.796 45.1504C205.293 44.4431 206 43.8888 206.917 43.4874C207.854 43.086 208.924 42.8853 210.128 42.8853C211.925 42.8853 213.368 43.344 214.458 44.2615C215.567 45.1599 216.159 46.3928 216.236 47.9602L212.967 47.9602C212.91 47.2529 212.623 46.6891 212.107 46.2685C211.591 45.848 210.893 45.6378 210.014 45.6378C209.154 45.6378 208.494 45.8002 208.035 46.1252C207.577 46.4501 207.347 46.8802 207.347 47.4154C207.347 47.8359 207.5 48.1895 207.806 48.4763C208.112 48.763 208.485 48.9924 208.924 49.1644C209.364 49.3173 210.014 49.518 210.874 49.7665C212.021 50.0723 212.957 50.3877 213.684 50.7127C214.429 51.0185 215.07 51.4772 215.605 52.0889C216.14 52.7006 216.417 53.5129 216.436 54.526C216.436 55.4244 216.188 56.2272 215.691 56.9344C215.194 57.6416 214.487 58.1959 213.569 58.5973C212.671 58.9987 211.61 59.1995 210.387 59.1995ZM234.447 50.6553C234.447 51.2479 234.409 51.7831 234.332 52.2609L222.262 52.2609C222.357 53.5225 222.826 54.5355 223.667 55.3001C224.508 56.0647 225.54 56.447 226.763 56.447C228.522 56.447 229.764 55.7111 230.49 54.2393L234.017 54.2393C233.539 55.692 232.67 56.8866 231.408 57.8232C230.166 58.7407 228.617 59.1995 226.763 59.1995C225.253 59.1995 223.896 58.8649 222.692 58.1959C221.507 57.5078 220.57 56.5521 219.882 55.3288C219.213 54.0863 218.878 52.6528 218.878 51.028C218.878 49.4033 219.203 47.9793 219.853 46.756C220.522 45.5135 221.449 44.5578 222.634 43.8888C223.839 43.2198 225.215 42.8853 226.763 42.8853C228.254 42.8853 229.583 43.2102 230.749 43.8601C231.915 44.51 232.822 45.4275 233.472 46.6126C234.122 47.7786 234.447 49.1262 234.447 50.6553ZM231.035 49.6231C231.016 48.4189 230.586 47.4536 229.745 46.7273C228.904 46.0009 227.862 45.6378 226.62 45.6378C225.492 45.6378 224.527 46.0009 223.724 46.7273C222.921 47.4345 222.443 48.3998 222.29 49.6231L231.035 49.6231Z" fill="#572415"/>
</svg>
